<svg xmlns="http://www.w3.org/2000/svg" xmlns:xlink="http://www.w3.org/1999/xlink" width="399.567" height="358.602" viewBox="0 0 399.567 358.602">
  <defs>
    <linearGradient id="linear-gradient" x1="0.5" y1="1" x2="0.5" gradientUnits="objectBoundingBox">
      <stop offset="0" stop-color="gray" stop-opacity="0.251"/>
      <stop offset="0.54" stop-color="gray" stop-opacity="0.122"/>
      <stop offset="1" stop-color="gray" stop-opacity="0.102"/>
    </linearGradient>
    <linearGradient id="linear-gradient-2" x1="0.735" y1="0.999" x2="0.735" y2="0" xlink:href="#linear-gradient"/>
    <linearGradient id="linear-gradient-3" x1="-3.809" y1="1" x2="-3.809" y2="0" xlink:href="#linear-gradient"/>
    <linearGradient id="linear-gradient-4" x1="-1.673" y1="1" x2="-1.673" y2="0" xlink:href="#linear-gradient"/>
    <linearGradient id="linear-gradient-5" x1="2.777" y1="1" x2="2.777" y2="0" xlink:href="#linear-gradient"/>
    <linearGradient id="linear-gradient-6" x1="5.099" y1="1" x2="5.099" y2="0" xlink:href="#linear-gradient"/>
    <linearGradient id="linear-gradient-7" x1="-3.571" y1="1" x2="-3.571" y2="0" xlink:href="#linear-gradient"/>
    <linearGradient id="linear-gradient-8" x1="0.481" y1="1" x2="0.481" y2="0" xlink:href="#linear-gradient"/>
    <linearGradient id="linear-gradient-9" x1="14.888" y1="1" x2="14.888" y2="0" xlink:href="#linear-gradient"/>
    <linearGradient id="linear-gradient-10" x1="26.652" y1="1" x2="26.652" y2="0" xlink:href="#linear-gradient"/>
    <linearGradient id="linear-gradient-11" x1="3.218" y1="1" x2="3.218" y2="0" xlink:href="#linear-gradient"/>
    <linearGradient id="linear-gradient-12" x1="3.274" y1="1" x2="3.274" y2="-0.001" xlink:href="#linear-gradient"/>
    <linearGradient id="linear-gradient-13" x1="4.097" y1="1" x2="4.097" y2="0" xlink:href="#linear-gradient"/>
    <linearGradient id="linear-gradient-15" x1="7.139" y1="1" x2="7.139" y2="0" xlink:href="#linear-gradient"/>
    <linearGradient id="linear-gradient-17" x1="0.502" y1="1" x2="0.502" y2="0" xlink:href="#linear-gradient"/>
    <linearGradient id="linear-gradient-18" x1="-14.076" y1="1" x2="-14.076" y2="0.001" xlink:href="#linear-gradient"/>
    <linearGradient id="linear-gradient-19" x1="-13.78" y1="1.001" x2="-13.78" y2="0.001" xlink:href="#linear-gradient"/>
  </defs>
  <g id="Illustration" transform="translate(0)">
    <path id="Shape" d="M.458,311.948a165.6,165.6,0,0,0,11.356,46.567l387.674.088L399.567,0,272.732.374S222.951-5.345,171.917,35.068q-2.386,1.891-4.688,3.889a139.3,139.3,0,0,0-19.483,20.7,144.554,144.554,0,0,0-28.493,70.212c-2.461,20-8.7,45.428-23.885,66.495q-.8,1.079-1.59,2.149a92.868,92.868,0,0,1-44.93,32.258c-18.9,6.428-30.986,16.848-38.4,29.054C.692,275.813-1,294.87.458,311.948Z" fill="#f7f7f7" opacity="0.8"/>
    <g id="Group_3" data-name="Group 3" transform="translate(44 54)">
      <g id="Group" transform="translate(70.732 85.262)" opacity="0.5">
        <path id="Shape-2" data-name="Shape" d="M67.393,2.611a11.322,11.322,0,0,1,4.72,3.272c1.916,2.611,1.435,6.34-.032,9.23s-3.769,5.262-5.535,7.96-3.006,6.1-1.988,9.182,3.857,4.979,6.4,6.913a59.352,59.352,0,0,1,9.1,8.6c2.286,2.667,4.429,6.368,2.847,9.5-1.292,2.563-4.429,3.423-7.066,4.565a19.05,19.05,0,0,0-10.7,11.359c-1.638,5.21-.612,11.045-2.672,16.1A6.647,6.647,0,0,1,60,92.56a7.4,7.4,0,0,1-2.851.888c-2.549.378-5.169.362-7.67.907-5.249,1.134-9.682,4.581-13.642,8.211a112.111,112.111,0,0,0-10.891,11.49c-1.928-3.642-5.845-5.811-8.183-9.206-4.97-7.228-1.8-18.28-7.686-24.784C6.291,76.99,1.731,75.315.383,71.39a9.277,9.277,0,0,1,.262-5.97,15.846,15.846,0,0,1,6.664-8.326C9.48,55.765,12.053,54.9,13.631,52.9a9.979,9.979,0,0,0,1.753-6.173c.056-6.2-2.485-12.473-.954-18.487A14.441,14.441,0,0,1,26.916,17.691a43.351,43.351,0,0,0,4.557-.283,13.948,13.948,0,0,0,6.509-3.737c4.5-4.091,8.195-9.437,13.686-12.338C56.661-1.305,62.558.426,67.393,2.611Z" transform="translate(0.233 0.31)" fill="#f55f44"/>
        <path id="Shape-3" data-name="Shape" d="M46.892,0S-7.462,81.889.868,105.869" transform="translate(20.671 3.12)" fill="#f55f44" stroke="#535461" stroke-miterlimit="10" stroke-width="0.714" opacity="0.6"/>
        <path id="Shape-4" data-name="Shape" d="M41.917,10.2S26.692-.872,0,.055" transform="translate(42.083 45.807)" fill="#f55f44" stroke="#535461" stroke-miterlimit="10" stroke-width="0.714" opacity="0.6"/>
        <path id="Shape-5" data-name="Shape" d="M18.465,33.886A48.357,48.357,0,0,0,0,0" transform="translate(18.211 22.352)" fill="#f55f44" stroke="#535461" stroke-miterlimit="10" stroke-width="0.714" opacity="0.6"/>
        <path id="Shape-6" data-name="Shape" d="M34.39,16S13.956-.532,0,.013" transform="translate(28.501 73.868)" fill="#f55f44" stroke="#535461" stroke-miterlimit="10" stroke-width="0.714" opacity="0.6"/>
        <path id="Shape-7" data-name="Shape" d="M24.557,15.124S15.75,3.108,0,0" transform="translate(0.31 68.258)" fill="#f55f44" stroke="#535461" stroke-miterlimit="10" stroke-width="0.714" opacity="0.6"/>
      </g>
      <g id="Group-2" data-name="Group" transform="translate(230.573 87.252)" opacity="0.5">
        <path id="Shape-8" data-name="Shape" d="M22.233,1.006A11.393,11.393,0,0,1,27.9.094c3.181.557,5.423,3.582,6.362,6.682s.918,6.408,1.523,9.592,2.052,6.483,4.907,8.012,6.227.923,9.4.557A59.27,59.27,0,0,1,62.6,24.822c3.5.338,7.594,1.52,8.62,4.88.839,2.746-.827,5.54-1.94,8.187A19.049,19.049,0,0,0,69.414,53.5c2.421,4.9,7.2,8.4,9.209,13.472a6.677,6.677,0,0,1,.485,4.06,7.417,7.417,0,0,1-1.443,2.619c-1.59,2.038-3.467,3.833-4.907,5.97-3,4.458-3.817,10.014-4.167,15.379a112.268,112.268,0,0,0,.087,15.837c-3.913-1.29-8.239-.139-12.27-.971C47.824,108.1,42.464,97.928,33.72,97.307c-4.135-.291-8.584,1.656-12.274-.239a9.286,9.286,0,0,1-3.928-4.482,15.863,15.863,0,0,1-.95-10.627c.648-2.464,1.909-4.872,1.662-7.407a10,10,0,0,0-3-5.668C10.969,64.368,4.79,61.606,1.744,56.2A14.465,14.465,0,0,1,3.458,39.935a43.259,43.259,0,0,0,3.093-3.363,13.971,13.971,0,0,0,2.111-7.208c.417-6.07-.612-12.489,1.348-18.384C11.792,5.627,17.223,2.789,22.233,1.006Z" transform="translate(0.347 0.121)" fill="#4db6ac"/>
        <path id="Shape-9" data-name="Shape" d="M0,0S17.4,96.759,40.008,108.3" transform="translate(22.68 1.305)" fill="none" stroke="#535461" stroke-miterlimit="10" stroke-width="0.714" opacity="0.6"/>
        <path id="Shape-10" data-name="Shape" d="M37.264,0S18.624,2.563,0,21.727" transform="translate(33.841 28.087)" fill="none" stroke="#535461" stroke-miterlimit="10" stroke-width="0.714" opacity="0.6"/>
        <path id="Shape-11" data-name="Shape" d="M36.751,11.928A48.248,48.248,0,0,0,0,.274" transform="translate(0.366 49.118)" fill="none" stroke="#535461" stroke-miterlimit="10" stroke-width="0.714" opacity="0.6"/>
        <path id="Shape-12" data-name="Shape" d="M35.873,0S9.694,2.225,0,12.29" transform="translate(43.423 67.151)" fill="none" stroke="#535461" stroke-miterlimit="10" stroke-width="0.714" opacity="0.6"/>
        <path id="Shape-13" data-name="Shape" d="M28.191.357S13.523-2.214,0,6.446" transform="translate(19.169 88.454)" fill="none" stroke="#535461" stroke-miterlimit="10" stroke-width="0.714" opacity="0.6"/>
      </g>
      <g id="Group-3" data-name="Group" transform="translate(135.145 0.487)" opacity="0.5">
        <path id="Shape-14" data-name="Shape" d="M8.281,236c3.726-2.209,5.69-9.584,6.278-12.183L19,166.367s3.336-19.013,16-46.1c.151-16.127.748-67.119,2.191-72.608l8.549-10.416a19.679,19.679,0,0,0-1.4-2.121h0L42.158,41.31l-7.9-.884,4.262-8.155a14.258,14.258,0,0,1-2.676-19.307,3.509,3.509,0,0,1,.147-4.45,18.223,18.223,0,0,1,4.676-3.889A16.652,16.652,0,0,1,64.945,27.348,3.634,3.634,0,0,0,66.6,28.411a15.173,15.173,0,0,1,6.918,4.708,2.883,2.883,0,0,1-.6,4.342l-1.292.824a2.872,2.872,0,0,1-3.372-.207L65.582,35.87a.213.213,0,0,0-.29.31,2.6,2.6,0,0,1-1.264,4.3h-.056l.056.028-.076.064a35.135,35.135,0,0,1,7.1,11.025c3.579,4.358,6.835,13.174,6.6,30.873q.4,4.836.529,10.348l4.119,17.007s31.742,58.6,23.865,66.319c0,0-4.771.848-11.451,2.619l19,25.21-.262.251,12.119,8.868s-2.231,5.668-3.777,6.527-2.06,4.466-2.06,4.466-5.837,11.853-10.127,11.168-1.193-5.5,0-10.651c.934-4.008-2.6-10.1-4.211-12.6l-.421.4s-22.561-16.963-31.189-26.455a64.686,64.686,0,0,0-12.918,7.383s-6.485-15.809-12.569-41.985h0l-.052.08c-5.328,7.96-14.294,21.922-14.656,26.268-.513,6.185-2.573,28.688-5.662,34.7L25.7,224.07H25.57l2.068,15.49s-5.634,2.308-7.32,1.787-4.648,1.592-4.648,1.592-12.588,3.98-15.062.4S3.717,238.7,8.281,236Z" transform="translate(0.037 0.369)" fill="url(#linear-gradient)"/>
      </g>
      <path id="Oval" d="M15.928,0A15.944,15.944,0,1,1,0,15.944,15.936,15.936,0,0,1,15.928,0Z" transform="translate(171.905 6.134)"/>
      <path id="Shape-15" data-name="Shape" d="M20.7,0,41.376,27.463,33,35.518S3.976,13.7.37,6.508A2.892,2.892,0,0,1,0,5.274C.012-.163,20.7,0,20.7,0Z" transform="translate(205.308 173.865)" fill="#252a62"/>
      <path id="Shape-16" data-name="Shape" d="M35.96,31.395S18.712,56.035,18.227,61.965s-2.461,27.462-5.419,33.2l-2.135,11.176H0L4.27,51.116S8.048,29.584,22.99,0L41.873,10.348Z" transform="translate(151.789 114.201)" fill="#252a62"/>
      <path id="Rectangle-path" d="M0,0H15.105V64.1H0Z" transform="translate(189.638 118.232) rotate(-180)" fill="#fff"/>
      <path id="Shape-17" data-name="Shape" d="M6.588,76.743,0,86.614s2.648-67.4,4.29-73.631L14.962,0l3.614,9.552-8.2,10.157S5.284,34.833,6.1,49.623,6.588,76.743,6.588,76.743Z" transform="translate(169.67 38.775)" opacity="0.1"/>
      <path id="Shape-18" data-name="Shape" d="M5.583,0,0,10.682l7.555.824L11.332.82,5.583,0Z" transform="translate(170.672 34.158)" fill="#ffc533"/>
      <path id="Oval-2" data-name="Oval" d="M13.63,0A13.644,13.644,0,1,1,0,13.644,13.637,13.637,0,0,1,13.63,0Z" transform="translate(169.686 12.789)" fill="#fda57d"/>
      <path id="Shape-19" data-name="Shape" d="M4.926,11.176A18.972,18.972,0,0,0,0,3.288L12.807,0l3.121,7.069Z" transform="translate(178.39 34.321)" fill="#fda57d"/>
      <path id="Shape-20" data-name="Shape" d="M11.547,0S33.714-1.639,35.193,54.9l3.94,16.27s30.378,56.047,22.823,63.446c0,0-28.573,5.094-43.34,16.438,0,0-11.328-27.614-17.734-70.017,0,0-3.447-46.169,3.284-61.8L.883,11.348Z" transform="translate(177.519 40.083)" fill="#3ad29f"/>
      <path id="Shape-21" data-name="Shape" d="M6.1,76.743,0,86.614s2.155-67.4,3.8-73.631L14.469,0l3.614,9.552L9.873,19.741S4.783,34.865,5.6,49.655,6.1,76.743,6.1,76.743Z" transform="translate(169.67 38.775)" fill="#3ad29f"/>
      <path id="Shape-22" data-name="Shape" d="M6.1,76.743,0,86.614s2.155-67.4,3.8-73.631L14.469,0l3.614,9.552L9.873,19.741S4.783,34.865,5.6,49.655,6.1,76.743,6.1,76.743Z" transform="translate(169.67 38.775)" opacity="0.05"/>
      <path id="Oval-3" data-name="Oval" d="M.656,0A.657.657,0,1,1,0,.657.656.656,0,0,1,.656,0Z" transform="translate(179.539 68.84)" fill="#4d8af0"/>
      <path id="Oval-4" data-name="Oval" d="M.656,0A.657.657,0,1,1,0,.657.656.656,0,0,1,.656,0Z" transform="translate(179.539 93.492)" fill="#4d8af0"/>
      <path id="Shape-23" data-name="Shape" d="M7.256,0,20.064,9.377s-2.135,5.425-3.614,6.245S14.461,19.9,14.461,19.9,8.895,31.235,4.771,30.579s-1.149-5.262,0-10.189S0,7.256,0,7.256Z" transform="translate(237.964 200.659)"/>
      <path id="Shape-24" data-name="Shape" d="M24.341.211l2.1,15.737s-5.392,2.209-7.006,1.707-4.445,1.532-4.445,1.532S2.945,23,.579,19.586s3-4.47,7.352-7.049S14.126,0,14.126,0Z" transform="translate(137.87 219.417)"/>
      <path id="Shape-25" data-name="Shape" d="M17.567.163.489,14.953,0,14.627,17.241,0l.326.163Z" transform="translate(181.594 44.761)" opacity="0.1"/>
      <path id="Shape-26" data-name="Shape" d="M17.98,1.811,8.374,0,0,11.176l4.843,2.929L17.98,1.811Z" transform="translate(176.338 42.95)" fill="#3ad29f"/>
      <path id="Shape-27" data-name="Shape" d="M.943,9.873,7.169,16.48v4.048a20.351,20.351,0,0,0,1.519,7.725l4.183,10.213a2.751,2.751,0,0,0,3.559,1.516l3.527-1.4a2.755,2.755,0,0,0,1.5-3.666l-.99-2.289a.2.2,0,1,1,.354-.2L22.835,35.3a2.75,2.75,0,0,0,2.918,1.087L27.7,35.9a2.488,2.488,0,0,0,1.193-4.115h0a.2.2,0,0,1,.278-.295L31.726,33.6a2.749,2.749,0,0,0,3.225.2l1.237-.8a2.756,2.756,0,0,0,.577-4.155,14.5,14.5,0,0,0-6.616-4.505c-3-.844-4.076-6.145-4.441-10.531A15.027,15.027,0,0,0,16.06.914C11.587-.745,6.092-.61.855,5.292A3.37,3.37,0,0,0,.943,9.873Z" transform="translate(171.467 9.447)" opacity="0.05"/>
      <path id="Shape-28" data-name="Shape" d="M.907,9.845l6.227,6.607V20.5a20.351,20.351,0,0,0,1.519,7.713l4.183,10.213a2.751,2.751,0,0,0,3.559,1.516l3.527-1.4a2.755,2.755,0,0,0,1.5-3.666l-.99-2.257a.2.2,0,1,1,.354-.2L22.8,35.289a2.75,2.75,0,0,0,2.918,1.087l1.944-.486a2.488,2.488,0,0,0,1.193-4.115h0a.2.2,0,0,1,.278-.295l2.557,2.113a2.749,2.749,0,0,0,3.225.2l1.237-.8a2.748,2.748,0,0,0,.6-4.131,14.527,14.527,0,0,0-6.636-4.525c-3-.848-4.076-6.181-4.433-10.575A15.026,15.026,0,0,0,15.738.8C11.332-.734,5.98-.475.871,5.272A3.385,3.385,0,0,0,.907,9.845Z" transform="translate(171.503 8.994)" fill="#ffc533"/>
      <path id="Shape-29" data-name="Shape" d="M3.284,0l.052.828L0,.414.175,0Z" transform="translate(174.918 118.228)" opacity="0.1"/>
      <path id="Shape-30" data-name="Shape" d="M1.233,0H0S3.423,31.709,6.759,32.29l.258-.4S1.559,6.082,1.233,0Z" transform="translate(177.078 119.052)" opacity="0.1"/>
      <path id="Shape-31" data-name="Shape" d="M.841,8.182A17.543,17.543,0,0,1,5.31,4.46,15.932,15.932,0,0,1,28.543,26.2c-.592.7-14.668-4.068-14.668-4.068A43.21,43.21,0,0,1,.917,12.719h0c-.048-.052-.1-.107-.139-.163A3.362,3.362,0,0,1,.841,8.182Z" transform="translate(171.493 6.601)" opacity="0.05"/>
      <path id="Shape-32" data-name="Shape" d="M.841,8.182A17.543,17.543,0,0,1,5.31,4.46,15.932,15.932,0,0,1,28.543,26.2c-.592.7-14.668-4.068-14.668-4.068A43.21,43.21,0,0,1,.917,12.719h0c-.048-.052-.1-.107-.139-.163A3.362,3.362,0,0,1,.841,8.182Z" transform="translate(171.493 6.12)" fill="#252a62"/>
      <g id="Group_2" data-name="Group 2" transform="translate(0.4 132.725)">
        <g id="Group-4" data-name="Group" transform="translate(0.749 34.923)" opacity="0.5">
          <path id="Shape-33" data-name="Shape" d="M0,17.621A12.055,12.055,0,0,0,12.14,29.335h.911a3.068,3.068,0,0,1,2.151.872,3,3,0,0,1,.875,1.528,2.864,2.864,0,0,1,.091.724V44A11.578,11.578,0,0,0,18,50.262a16.557,16.557,0,0,1,2.72,8.911h0a5.569,5.569,0,0,0,5.662,5.572A5.682,5.682,0,0,0,31.83,59v-2.89l1.515.175v2.893a5.569,5.569,0,0,0,5.662,5.572,5.682,5.682,0,0,0,5.451-5.743V57.549c1.515.633,10.1.633,12.489.02l.648-.052v1.676a5.569,5.569,0,0,0,5.662,5.572,5.682,5.682,0,0,0,5.451-5.743V56.634l.5-.044v2.631a5.645,5.645,0,0,0,.171,1.381,5.567,5.567,0,0,0,5.491,4.183,5.656,5.656,0,0,0,5.4-4.967,6.577,6.577,0,0,0,.052-.8V46.906a18.523,18.523,0,0,0-3.936-11.455,3.434,3.434,0,0,1-.1-4.052c2.831-4.147,7.014-11.144,6.875-16.107a5.444,5.444,0,0,0-1.324-3.674l-.167-.175a6.2,6.2,0,0,0-10.624,4.967,16.473,16.473,0,0,1-.429,5.867,17.965,17.965,0,0,1-1.137,3.144,5.327,5.327,0,0,1-5.451,3.033,18.821,18.821,0,0,0-2.278-.135H38.4a6.565,6.565,0,0,1-6.215-4.454,6.374,6.374,0,0,1-.354-2.117V3.54A3.54,3.54,0,0,0,28.184,0,3.438,3.438,0,0,0,25.743,1.14a3.807,3.807,0,0,0-.986,2.551,1.874,1.874,0,0,1-1.873,1.875H11.874A11.875,11.875,0,0,0,0,17.621Z" transform="translate(1.279 0.17)" fill="url(#linear-gradient-2)"/>
          <path id="Shape-34" data-name="Shape" d="M0,1.6A5.567,5.567,0,0,0,5.491,5.786a5.656,5.656,0,0,0,5.4-4.967C7.527-.088,2.859-.717,0,1.6Z" transform="translate(70.668 59.116)" fill="url(#linear-gradient-3)"/>
          <path id="Shape-35" data-name="Shape" d="M0,1.6A5.567,5.567,0,0,0,5.491,5.786,5.656,5.656,0,0,0,10.9.819C7.531-.088,2.867-.717,0,1.6Z" transform="translate(59.046 59.116)" fill="url(#linear-gradient-4)"/>
          <path id="Shape-36" data-name="Shape" d="M0,1.6A5.567,5.567,0,0,0,5.491,5.786,5.656,5.656,0,0,0,10.9.819C7.531-.088,2.867-.717,0,1.6Z" transform="translate(34.795 59.116)" fill="url(#linear-gradient-5)"/>
          <path id="Shape-37" data-name="Shape" d="M0,1.6A5.567,5.567,0,0,0,5.491,5.786a5.656,5.656,0,0,0,5.4-4.967C7.527-.088,2.851-.717,0,1.6Z" transform="translate(22.167 59.116)" fill="url(#linear-gradient-6)"/>
          <path id="Shape-38" data-name="Shape" d="M0,12.743A81.03,81.03,0,0,0,12.541,5.77,5.444,5.444,0,0,0,11.217,2.1l-.167-.175A6.2,6.2,0,0,0,.421,6.876,16.473,16.473,0,0,1,0,12.743Z" transform="translate(71.913 9.705)" fill="url(#linear-gradient-7)"/>
          <path id="Shape-39" data-name="Shape" d="M28.493.036S17.682,13.656,0,0" transform="translate(38.672 28.489)" fill="url(#linear-gradient-8)"/>
          <path id="Shape-40" data-name="Shape" d="M2.919,0s-6.569,8.6,0,19.22" transform="translate(30.19 3.204)" fill="url(#linear-gradient-9)"/>
          <path id="Shape-41" data-name="Shape" d="M0,0S5.785,7.2.072,12.911" transform="translate(17.463 32.537)" fill="url(#linear-gradient-10)"/>
          <g id="Group-5" data-name="Group" transform="translate(16.7 24.278)" opacity="0.1">
            <path id="Shape-42" data-name="Shape" d="M0,6.48c.429.4.282.8.4,1.385L19.209,2.937c-1.01-.8-2.262-1.7-2.676-2.937C14.266,1.751,9.817,4.685,0,6.48Z" transform="translate(0.243 0.263)" fill="url(#linear-gradient-11)"/>
          </g>
          <path id="Shape-43" data-name="Shape" d="M0,6.332A3,3,0,0,1,.875,7.861l18.29-4.776A6.531,6.531,0,0,1,16.962,0C14.728,1.743,9.817,4.537,0,6.332Z" transform="translate(16.481 24.039)" fill="url(#linear-gradient-12)"/>
          <path id="Shape-44" data-name="Shape" d="M15.312,0A35.507,35.507,0,0,1,0,5.648" transform="translate(17.463 25.046)" opacity="0.1" fill="url(#linear-gradient-13)"/>
          <path id="Shape-45" data-name="Shape" d="M15.312,0A35.447,35.447,0,0,1,0,5.648" transform="translate(17.463 24.541)" fill="url(#linear-gradient-13)"/>
          <g id="Group-6" data-name="Group" transform="translate(5.964 18.308)" opacity="0.1">
            <path id="Shape-46" data-name="Shape" d="M12.127,6.575S2.529,9.608,0,0Z" transform="translate(0.366 0.068)" fill="url(#linear-gradient-15)"/>
          </g>
          <path id="Shape-47" data-name="Shape" d="M12.127,6.575S2.529,9.608,0,0Z" transform="translate(6.33 17.87)" fill="url(#linear-gradient-15)"/>
          <path id="Oval-5" data-name="Oval" d="M1.01,0c.558,0,1.01.793,1.01,1.771S1.568,3.542,1.01,3.542,0,2.749,0,1.771.452,0,1.01,0Z" transform="translate(0.266 14.834)" fill="url(#linear-gradient-17)"/>
          <path id="Shape-48" data-name="Shape" d="M2.02,16.2,0,0S6.064,9.608,2.02,16.183" transform="translate(75.801 36.815)" opacity="0.1" fill="url(#linear-gradient-18)"/>
          <path id="Shape-49" data-name="Shape" d="M0,0S6.064,9.608,2.02,16.183Z" transform="translate(75.296 36.815)" fill="url(#linear-gradient-19)"/>
        </g>
        <path id="Shape-50" data-name="Shape" d="M0,16.813A11.5,11.5,0,0,0,11.584,27.989h.867a2.929,2.929,0,0,1,2.056.832,2.862,2.862,0,0,1,.835,1.457,2.733,2.733,0,0,1,.087.689V41.983a11.049,11.049,0,0,0,1.746,5.97,15.8,15.8,0,0,1,2.592,8.5h0a5.311,5.311,0,0,0,5.4,5.309,5.419,5.419,0,0,0,5.2-5.481V53.529l1.447.167v2.762a5.311,5.311,0,0,0,5.4,5.309,5.419,5.419,0,0,0,5.2-5.481V54.894c1.447.6,9.642.6,11.928,0l.616-.048v1.592a5.311,5.311,0,0,0,5.4,5.309,5.419,5.419,0,0,0,5.2-5.481V53.975l.481-.044v2.507a5.386,5.386,0,0,0,.163,1.317,5.313,5.313,0,0,0,5.241,3.98A5.4,5.4,0,0,0,76.625,57a6.275,6.275,0,0,0,.048-.744V44.709a17.675,17.675,0,0,0-3.761-10.921,3.274,3.274,0,0,1-.091-3.865c2.7-3.956,6.692-10.635,6.561-15.371a5.177,5.177,0,0,0-1.264-3.5l-.159-.167a5.91,5.91,0,0,0-10.135,4.728,15.72,15.72,0,0,1-.4,5.6,17.125,17.125,0,0,1-1.085,3,5.085,5.085,0,0,1-5.2,2.893,17.958,17.958,0,0,0-2.175-.131H36.653a6.267,6.267,0,0,1-5.928-4.251,6.1,6.1,0,0,1-.338-2.022V3.381A3.377,3.377,0,0,0,26.908,0a3.283,3.283,0,0,0-2.33,1.087,3.632,3.632,0,0,0-.938,2.432A1.79,1.79,0,0,1,21.85,5.311H11.341A11.33,11.33,0,0,0,0,16.813Z" transform="translate(3.897 36.573)" fill="#f3ad55"/>
        <path id="Shape-51" data-name="Shape" d="M0,1.533a5.313,5.313,0,0,0,5.241,3.98A5.4,5.4,0,0,0,10.41.773C7.181-.083,2.732-.684,0,1.533Z" transform="translate(70.121 92.82)" fill="#f38143"/>
        <path id="Shape-52" data-name="Shape" d="M0,1.533a5.313,5.313,0,0,0,5.241,3.98A5.4,5.4,0,0,0,10.41.773C7.185-.083,2.736-.684,0,1.533Z" transform="translate(59.031 92.82)" fill="#f38143"/>
        <path id="Shape-53" data-name="Shape" d="M0,1.533a5.313,5.313,0,0,0,5.241,3.98A5.4,5.4,0,0,0,10.41.773C7.185-.083,2.736-.684,0,1.533Z" transform="translate(35.89 92.82)" fill="#f38143"/>
        <path id="Shape-54" data-name="Shape" d="M0,1.533a5.313,5.313,0,0,0,5.241,3.98A5.4,5.4,0,0,0,10.41.773C7.185-.083,2.724-.684,0,1.533Z" transform="translate(23.839 92.82)" fill="#f38143"/>
        <path id="Shape-55" data-name="Shape" d="M0,12.159A75.951,75.951,0,0,0,11.964,5.5,5.177,5.177,0,0,0,10.7,2l-.159-.167A5.91,5.91,0,0,0,.406,6.563,15.72,15.72,0,0,1,0,12.159Z" transform="translate(71.306 45.673)" fill="#f8dea5"/>
        <path id="Shape-56" data-name="Shape" d="M27.189.032S16.875,13.031,0,0" transform="translate(39.584 63.599)" fill="#f8dea5"/>
        <path id="Shape-57" data-name="Shape" d="M2.785,0s-6.266,8.2,0,18.336" transform="translate(31.495 39.472)" fill="#f8dea5"/>
        <path id="Shape-58" data-name="Shape" d="M0,0S5.519,6.866.068,12.338" transform="translate(19.338 67.46)" fill="#f8dea5"/>
        <path id="Shape-59" data-name="Shape" d="M0,6.165c.4.4.27.756.4,1.321l17.924-4.7A6.978,6.978,0,0,1,15.765,0C13.614,1.652,9.364,4.454,0,6.165Z" transform="translate(18.856 59.846)" opacity="0.1"/>
        <path id="Shape-60" data-name="Shape" d="M0,6.05A2.862,2.862,0,0,1,.835,7.506L18.306,2.945A6.229,6.229,0,0,1,16.2,0C14.056,1.672,9.368,4.334,0,6.05Z" transform="translate(18.415 59.345)" fill="#383f4d"/>
        <path id="Shape-61" data-name="Shape" d="M14.624,0A33.856,33.856,0,0,1,0,5.389" transform="translate(19.338 60.312)" opacity="0.1"/>
        <path id="Shape-62" data-name="Shape" d="M14.624,0A33.856,33.856,0,0,1,0,5.389" transform="translate(19.338 59.83)" fill="#f3ad55"/>
        <path id="Shape-63" data-name="Shape" d="M11.571,6.273S2.425,9.166,0,0Z" transform="translate(5.946 55.54)" opacity="0.1"/>
        <path id="Shape-64" data-name="Shape" d="M11.571,6.273S2.425,9.166,0,0Z" transform="translate(5.946 55.058)" fill="#f3ad55"/>
        <path id="Oval-6" data-name="Oval" d="M.962,0c.531,0,.962.756.962,1.688S1.494,3.375.962,3.375,0,2.62,0,1.688.431,0,.962,0Z" transform="translate(2.948 50.573)" fill="#383f4d"/>
        <path id="Shape-65" data-name="Shape" d="M1.928,15.443,0,0S5.785,9.154,1.928,15.443" transform="translate(75.019 71.559)" opacity="0.1"/>
        <path id="Shape-66" data-name="Shape" d="M0,0S5.785,9.154,1.928,15.443Z" transform="translate(74.538 71.559)" fill="#f3ad55"/>
        <path id="Shape-67" data-name="Shape" d="M0,62.184S28.318,78.2,49.419,69.925A26.473,26.473,0,0,0,65.4,50.964a42.533,42.533,0,0,1,5.646-13.48,41.017,41.017,0,0,1,35.241-18.635c14.676.207,42.223-1.787,50.3-18.849" transform="translate(34.28 0.822)" fill="none" stroke="#383f4d" stroke-miterlimit="10" stroke-width="0.795" opacity="0.1"/>
        <path id="Shape-68" data-name="Shape" d="M0,62.164s28.318,16.012,49.419,7.741A26.473,26.473,0,0,0,65.4,50.945a42.533,42.533,0,0,1,5.646-13.461,41.017,41.017,0,0,1,35.241-18.635c14.676.207,42.223-1.787,50.3-18.849" transform="translate(34.28 0.36)" fill="none" stroke="#383f4d" stroke-miterlimit="10" stroke-width="0.795"/>
      </g>
      <path id="Shape-69" data-name="Shape" d="M13.442,2.464S14.607,19.829,3.2,23.486A2.438,2.438,0,0,1,.022,21.317C-.168,18.364.774,12.282,6.209,0Z" transform="translate(186.952 118.642)" opacity="0.1"/>
      <path id="Shape-70" data-name="Shape" d="M13.442,2.464S14.607,19.829,3.2,23.486A2.438,2.438,0,0,1,.022,21.317C-.168,18.364.774,12.282,6.209,0Z" transform="translate(186.296 118.312)" fill="#fda57d"/>
      <path id="Shape-71" data-name="Shape" d="M7.241.061S23.662-3.227,21.69,38.52c0,0-3.94,30.571-10.839,32.545L.513,68.434l4.1-28.6L.513,25.04S-2.763,2.692,7.241.061Z" transform="translate(190.362 51.518)" opacity="0.1"/>
      <path id="Shape-72" data-name="Shape" d="M7.244.061S23.666-3.227,21.694,38.52c0,0-3.94,30.571-10.839,32.545L.517,68.434l4.1-28.6L.517,25.04S-2.772,2.692,7.244.061Z" transform="translate(188.879 51.518)" opacity="0.1"/>
      <path id="Shape-73" data-name="Shape" d="M7.244.061S23.666-3.227,21.694,38.52c0,0-3.94,30.571-10.839,32.545L.517,68.434l4.1-28.6L.517,25.04S-2.772,2.692,7.244.061Z" transform="translate(189.702 51.518)" fill="#3ad29f"/>
      <path id="Shape-74" data-name="Shape" d="M8.5,3.116V2.066L.378,0,0,.888,8.5,3.116Z" transform="translate(191.264 120.318)" opacity="0.1"/>
    </g>
  </g>
</svg>
