<svg id="Illustration" xmlns="http://www.w3.org/2000/svg" xmlns:xlink="http://www.w3.org/1999/xlink" width="398" height="357" viewBox="0 0 398 357">
  <defs>
    <linearGradient id="linear-gradient" x1="0.5" y1="1" x2="0.5" gradientUnits="objectBoundingBox">
      <stop offset="0" stop-color="gray" stop-opacity="0.251"/>
      <stop offset="0.54" stop-color="gray" stop-opacity="0.122"/>
      <stop offset="1" stop-color="gray" stop-opacity="0.102"/>
    </linearGradient>
    <linearGradient id="linear-gradient-2" x1="0.5" x2="0.5" y2="0" xlink:href="#linear-gradient"/>
    <linearGradient id="linear-gradient-3" x1="0.265" y1="0.999" x2="0.265" y2="0" xlink:href="#linear-gradient"/>
    <linearGradient id="linear-gradient-4" x1="4.809" x2="4.809" y2="0" xlink:href="#linear-gradient"/>
    <linearGradient id="linear-gradient-5" x1="2.673" x2="2.673" y2="0" xlink:href="#linear-gradient"/>
    <linearGradient id="linear-gradient-6" x1="-1.777" x2="-1.777" y2="0" xlink:href="#linear-gradient"/>
    <linearGradient id="linear-gradient-7" x1="-4.099" x2="-4.099" y2="0" xlink:href="#linear-gradient"/>
    <linearGradient id="linear-gradient-8" x1="4.571" x2="4.571" y2="0" xlink:href="#linear-gradient"/>
    <linearGradient id="linear-gradient-9" x1="0.519" x2="0.519" y2="0" xlink:href="#linear-gradient"/>
    <linearGradient id="linear-gradient-10" x1="-13.888" x2="-13.888" y2="0" xlink:href="#linear-gradient"/>
    <linearGradient id="linear-gradient-11" x1="-25.652" x2="-25.652" y2="0" xlink:href="#linear-gradient"/>
    <linearGradient id="linear-gradient-12" x1="-2.218" x2="-2.218" y2="0" xlink:href="#linear-gradient"/>
    <linearGradient id="linear-gradient-13" x1="-2.274" x2="-2.274" y2="-0.001" xlink:href="#linear-gradient"/>
    <linearGradient id="linear-gradient-14" x1="-3.097" x2="-3.097" y2="0" xlink:href="#linear-gradient"/>
    <linearGradient id="linear-gradient-16" x1="-6.139" x2="-6.139" y2="0" xlink:href="#linear-gradient"/>
    <linearGradient id="linear-gradient-18" x1="0.498" x2="0.498" y2="0" xlink:href="#linear-gradient"/>
    <linearGradient id="linear-gradient-19" x1="15.076" x2="15.076" y2="0.001" xlink:href="#linear-gradient"/>
    <linearGradient id="linear-gradient-20" x1="14.78" y1="1.001" x2="14.78" y2="0.001" xlink:href="#linear-gradient"/>
  </defs>
  <path id="Shape" d="M.456,310.554a164.789,164.789,0,0,0,11.311,46.358L397.921,357,398,0,271.663.372s-49.586-5.694-100.42,34.539q-2.376,1.882-4.669,3.871a138.706,138.706,0,0,0-19.407,20.6,143.865,143.865,0,0,0-28.381,69.9c-2.452,19.914-8.666,45.225-23.791,66.2q-.792,1.074-1.584,2.14a92.5,92.5,0,0,1-44.754,32.114c-18.828,6.4-30.865,16.772-38.247,28.925C.69,274.581-1,293.552.456,310.554Z" fill="#f5f5f5" opacity="0.8"/>
  <g id="Illustration-2" data-name="Illustration" transform="translate(114 47)">
    <g id="undraw_login_jdch">
      <path id="Rectangle-path" d="M0,0H153.9V228.249H0Z" transform="translate(0 5.927)" fill="#e0b022"/>
      <path id="Shape-2" data-name="Shape" d="M111.958,240.061,0,234.155V5.906L111.958,0V240.061Z" transform="translate(0 0.021)" fill="#ffc107"/>
      <path id="Oval" d="M1.386,0A1.39,1.39,0,1,1,0,1.39,1.388,1.388,0,0,1,1.386,0Z" transform="translate(101.213 129.605)" fill="#252a62"/>
      <path id="Shape-3" data-name="Shape" d="M1.924,0l.96,1.668.964,1.668H0L.964,1.668,1.924,0Z" transform="translate(100.676 131.203)" fill="#252a62"/>
      <path id="Shape-4" data-name="Shape" d="M6.856,240.061,0,240.04.27,0H6.856V240.061Z" transform="translate(109.955 0.021)" fill="#ffc107"/>
      <g id="Group" transform="translate(109.879)" opacity="0.1">
        <path id="Shape-5" data-name="Shape" d="M6.932,240.061H0L.347,0H6.932V240.061Z" transform="translate(0.076)" fill="#fff"/>
      </g>
      <path id="Oval-2" data-name="Oval" d="M4.506,0A4.516,4.516,0,1,1,0,4.516,4.511,4.511,0,0,1,4.506,0Z" transform="translate(98.094 116.404)" opacity="0.1"/>
      <path id="Oval-3" data-name="Oval" d="M4.506,0A4.516,4.516,0,1,1,0,4.516,4.511,4.511,0,0,1,4.506,0Z" transform="translate(98.094 115.709)" fill="#252a62"/>
      <path id="Shape-6" data-name="Shape" d="M10.351,28.717V31.2l10.489-6.636-1.1-1.39-.513.3L11.11,11.566V4.652L8.021,4.93v-1.1c-8.146-9.4-8.988,1.1-7.3,4.148A18.689,18.689,0,0,0,5.484,13.24c1.733,1.449,4.721,12.392,5.452,15.137Z" transform="translate(109.566 39.914)" fill="url(#linear-gradient)"/>
      <path id="Shape-7" data-name="Shape" d="M46.724,229.724l-10.4,3.2s-11.428-1.977-4.742-4.7c4.988-2.036,6.229-4.94,6.538-6.285L21.785,174.857s3.036-40.1,14.076-53.953l1.12-8.15h-.153l-2.343-47.6-.194.024.056.017a52.589,52.589,0,0,1-18.208-.281,28.288,28.288,0,0,1-5.272-1.48l-.312-.125h-.069A15.965,15.965,0,0,1,6.9,61.264L0,50.706l10.481-7.24L14.063,48.6s11.234-2.383,17.4-4.867a26.291,26.291,0,0,1,9.047-1.942l6.738-.222,3.359-2.022-1.04-2.716c-.1-.049-.208-.1-.309-.153l-.1-.584a16.132,16.132,0,0,1-11.74-19.531h-.219c.094-5.618,1.8-6.146,1.8-6.146C39.009,4.72,43.972.55,49.632.068a28.053,28.053,0,0,1,8.725.764A10.164,10.164,0,0,1,66.114,9.67c7.376,2.015,4.912,5.892,5.03,7.39.568,7.236-1.733,11.516-4.257,14.011a13.3,13.3,0,0,1-3.726,2.74l1.616,3.235.472-.017,1.3,3.87h.062l1.432.973a27.042,27.042,0,0,1,11.4,27.223s-8,15.7-5.518,31.385c.835,5.274.485,8.5-.346,10.461a19.25,19.25,0,0,0,1.732,6.128c3.033,6.361,3.033,13-.828,20.737l-1.1,40.091s-1.38,18.8,0,22.672-.551,22.395-.551,22.395H73.1V233.2l-20.69.552S47.584,231.461,46.724,229.724Z" transform="translate(119.924 21.232)" fill="url(#linear-gradient-2)"/>
      <path id="Shape-8" data-name="Shape" d="M10.676,4.464v6.653l7.893,11.59-7.893,5.145S7.169,14.3,5.279,12.708A17.813,17.813,0,0,1,.69,7.66C-.929,4.738-.121-5.357,7.709,3.675V4.738Z" transform="translate(111.324 43.774)" fill="#fda57d"/>
      <path id="Shape-9" data-name="Shape" d="M17.163,7.513l-3.12-6.253A1.158,1.158,0,0,0,13.066.62L1.218,0A1.16,1.16,0,0,0,.078,1.579L3.139,9.51a1.158,1.158,0,0,0,1.182.737L16.251,9.184a1.161,1.161,0,0,0,.912-1.671Z" transform="translate(167.662 56.564)" fill="#fda57d"/>
      <path id="Shape-10" data-name="Shape" d="M18.686,0,20.7,5.923,0,5.18,7.951.4,18.686,0Z" transform="translate(165.276 61.388)" fill="#fff"/>
      <path id="Shape-11" data-name="Shape" d="M10.073,1.327,9.012,0,0,5.312V7.706L10.073,1.327Z" transform="translate(121.276 66.036)" fill="#edeef9"/>
      <path id="Shape-12" data-name="Shape" d="M50.028,0a19.844,19.844,0,0,0,1.386,12.159c2.9,6.111,2.915,12.486-.794,19.924L49.57,70.6s-1.324,18.065,0,21.783-.53,21.519-.53,21.519H34.2V101.955L29.161,66.623V48.558L20.149,67.419l10.333,43.569-13.518,5.579L0,67.686s2.915-38.521,13.518-51.8L15.508,1.4Z" transform="translate(142.211 126.135)" fill="#252a62"/>
      <path id="Shape-13" data-name="Shape" d="M25.469,9.828V0H10.36S9.3,3.985,2.408,4.78,5.6,10.36,5.6,10.36Z" transform="translate(166.049 240.044)" fill="#333"/>
      <path id="Shape-14" data-name="Shape" d="M25.587,9.47,22.956,0,8.4,4.061S8.443,8.185,2.017,10.8s4.558,4.516,4.558,4.516Z" transform="translate(149.612 234.284)" fill="#333"/>
      <path id="Shape-15" data-name="Shape" d="M.912,1.39,35.428,0a19.4,19.4,0,0,0-.26,6.271,4.135,4.135,0,0,1-4.967,2.7L0,8.043Z" transform="translate(156.811 126.944)" opacity="0.1"/>
      <path id="Shape-16" data-name="Shape" d="M64,0l1.386.935a25.981,25.981,0,0,1,10.95,26.171h0s-7.688,15.074-5.3,30.148-5.3,12.753-5.3,12.753l-30.35-.935L33.133,23.336S14.846,25.945,6.627,19.566L0,9.422,10.073,2.474,13.518,7.4S24.312,5.114,30.239,2.706A25.278,25.278,0,0,1,38.925.834Z" transform="translate(121.289 65.105)" fill="#3ad29f"/>
      <path id="Shape-17" data-name="Shape" d="M8.745,0S10.6,9.3,0,24.708" transform="translate(176.277 138.694)" opacity="0.1"/>
      <path id="Shape-18" data-name="Shape" d="M22.984,4.249S10.263,0,4.7,0,.058,2.411.058,2.411,8.935,6.372,22.984,4.249Z" transform="translate(131.294 84.237)" opacity="0.1"/>
      <path id="Shape-19" data-name="Shape" d="M.52,0,5.584.609c.159.021.305.222.392.535C4.863,3.156,3.47,4.358,1.959,4.358A3.114,3.114,0,0,1,.423,3.931L.035,1.582C-.1.8.163-.04.52,0Z" transform="translate(168.184 57.096)" opacity="0.1"/>
      <path id="Oval-4" data-name="Oval" d="M15.459,0A15.495,15.495,0,1,1,0,15.495,15.477,15.477,0,0,1,15.459,0Z" transform="translate(156.776 29.929)" fill="#fda57d"/>
      <path id="Shape-20" data-name="Shape" d="M0,10.587H0l.78.716a2.682,2.682,0,0,1,.828,2.44A2.677,2.677,0,0,1,0,15.753H0s6.932,6.948,7.889,8.23-.159,4.68-.159,4.68S4.669,34.312,20.773,33.02c0,0,10.627-2.258,9.5-16.624-.114-1.438,2.253-5.166-4.832-7.1h0A9.765,9.765,0,0,0,17.99.8,26.977,26.977,0,0,0,9.608.064,10.538,10.538,0,0,0,0,10.587Z" transform="translate(159.088 26.065)" opacity="0.1"/>
      <path id="Shape-21" data-name="Shape" d="M1.733,10h0S.094,10.511,0,15.91l2.333-.16s5.4,14.477,4.832,12.59c-2.08-6.948,2.08-5.649,3.061-4.357s-.159,4.68-.159,4.68S7.009,34.3,23.109,33.02c0,0,10.627-2.258,9.5-16.624-.114-1.438,2.253-5.166-4.832-7.1h0A9.765,9.765,0,0,0,20.326.8,26.977,26.977,0,0,0,11.945.064C6.5.53,1.733,4.532,1.733,10Z" transform="translate(157.019 25.801)" fill="#252a62"/>
      <path id="Shape-22" data-name="Shape" d="M0,0V229.656" transform="translate(18.308 5.597)" fill="none" stroke="#000" stroke-miterlimit="10" stroke-width="0.693" opacity="0.1"/>
      <path id="Shape-23" data-name="Shape" d="M0,0V231.741" transform="translate(38.066 4.207)" fill="none" stroke="#000" stroke-miterlimit="10" stroke-width="0.693" opacity="0.1"/>
      <path id="Shape-24" data-name="Shape" d="M0,0V234.117" transform="translate(57.823 3.165)" fill="none" stroke="#000" stroke-miterlimit="10" stroke-width="0.693" opacity="0.1"/>
      <path id="Shape-25" data-name="Shape" d="M0,0V236.6" transform="translate(77.581 2.123)" fill="none" stroke="#000" stroke-miterlimit="10" stroke-width="0.693" opacity="0.1"/>
      <path id="Shape-26" data-name="Shape" d="M0,0V237.939" transform="translate(97.338 1.08)" fill="none" stroke="#000" stroke-miterlimit="10" stroke-width="0.693" opacity="0.1"/>
    </g>
  </g>
  <g id="Group_2" data-name="Group 2" transform="translate(140 250)">
    <g id="Group-2" data-name="Group" transform="translate(-0.588 0.325)" opacity="0.5">
      <path id="Shape-27" data-name="Shape" d="M0,13.787a9.446,9.446,0,0,1-9.523,9.165h-.714a2.41,2.41,0,0,0-1.688.682,2.347,2.347,0,0,0-.686,1.2,2.235,2.235,0,0,0-.072.567v9.031a9.041,9.041,0,0,1-1.435,4.9A12.93,12.93,0,0,0-16.253,46.3h0a4.356,4.356,0,0,1-1.305,3.109,4.371,4.371,0,0,1-3.137,1.25,4.451,4.451,0,0,1-4.277-4.494V43.9l-1.188.137V46.3a4.356,4.356,0,0,1-1.305,3.109,4.371,4.371,0,0,1-3.137,1.25,4.451,4.451,0,0,1-4.277-4.494V45.028c-1.188.5-7.926.5-9.8.016l-.508-.04v1.311a4.356,4.356,0,0,1-1.305,3.109,4.371,4.371,0,0,1-3.137,1.25A4.451,4.451,0,0,1-53.9,46.18V44.311l-.4-.034v2.058a4.405,4.405,0,0,1-.134,1.081,4.366,4.366,0,0,1-4.308,3.273A4.433,4.433,0,0,1-62.978,46.8a5.133,5.133,0,0,1-.041-.623V36.7a14.468,14.468,0,0,1,3.088-8.962,2.681,2.681,0,0,0,.075-3.17c-2.221-3.245-5.5-8.719-5.393-12.6A4.253,4.253,0,0,1-64.21,9.091l.131-.137a4.866,4.866,0,0,1,8.335,3.886,12.856,12.856,0,0,0,.337,4.59,14.032,14.032,0,0,0,.892,2.46,4.181,4.181,0,0,0,4.277,2.373,14.8,14.8,0,0,1,1.787-.106h18.326a5.149,5.149,0,0,0,4.876-3.485,4.975,4.975,0,0,0,.278-1.657V2.77A2.769,2.769,0,0,1-24.128.782,2.779,2.779,0,0,1-22.111,0,2.7,2.7,0,0,1-20.2.892a2.974,2.974,0,0,1,.774,2,1.468,1.468,0,0,0,1.469,1.467h8.638A9.319,9.319,0,0,1-2.68,7.124,9.287,9.287,0,0,1,0,13.787Z" transform="translate(-1.003 0.133)" fill="url(#linear-gradient-3)"/>
      <path id="Shape-28" data-name="Shape" d="M0,1.254A4.366,4.366,0,0,1-4.308,4.527,4.433,4.433,0,0,1-8.544.641C-5.9-.069-2.243-.561,0,1.254Z" transform="translate(-55.44 46.254)" fill="url(#linear-gradient-4)"/>
      <path id="Shape-29" data-name="Shape" d="M0,1.254A4.366,4.366,0,0,1-4.308,4.527,4.433,4.433,0,0,1-8.553.641C-5.908-.069-2.249-.561,0,1.254Z" transform="translate(-46.322 46.254)" fill="url(#linear-gradient-5)"/>
      <path id="Shape-30" data-name="Shape" d="M0,1.254A4.366,4.366,0,0,1-4.308,4.527,4.433,4.433,0,0,1-8.55.641C-5.908-.069-2.249-.561,0,1.254Z" transform="translate(-27.298 46.254)" fill="url(#linear-gradient-6)"/>
      <path id="Shape-31" data-name="Shape" d="M0,1.254A4.366,4.366,0,0,1-4.308,4.527,4.433,4.433,0,0,1-8.544.641C-5.9-.069-2.237-.561,0,1.254Z" transform="translate(-17.39 46.254)" fill="url(#linear-gradient-7)"/>
      <path id="Shape-32" data-name="Shape" d="M0,9.97A63.619,63.619,0,0,1-9.838,4.514,4.253,4.253,0,0,1-8.8,1.64l.131-.137A4.864,4.864,0,0,1-.331,5.38,12.856,12.856,0,0,0,0,9.97Z" transform="translate(-56.417 7.593)" fill="url(#linear-gradient-8)"/>
      <path id="Shape-33" data-name="Shape" d="M-22.353.028S-13.872,10.684,0,0" transform="translate(-30.339 22.29)" fill="url(#linear-gradient-9)"/>
      <path id="Shape-34" data-name="Shape" d="M-2.29,0a13.447,13.447,0,0,1,0,15.038" transform="translate(-23.685 2.507)" fill="url(#linear-gradient-10)"/>
      <path id="Shape-35" data-name="Shape" d="M0,0S-4.539,5.63-.056,10.1" transform="translate(-13.7 25.458)" fill="url(#linear-gradient-11)"/>
      <g id="Group-3" data-name="Group" transform="translate(-13.101 18.996)" opacity="0.1">
        <path id="Shape-36" data-name="Shape" d="M0,5.07c-.337.311-.221.623-.312,1.084L-15.07,2.3A5.709,5.709,0,0,0-12.97,0C-11.192,1.37-7.7,3.665,0,5.07Z" transform="translate(-0.19 0.206)" fill="url(#linear-gradient-12)"/>
      </g>
      <path id="Shape-37" data-name="Shape" d="M0,4.954a2.347,2.347,0,0,0-.686,1.2L-15.035,2.413A5.11,5.11,0,0,0-13.307,0C-11.554,1.364-7.7,3.55,0,4.954Z" transform="translate(-12.93 18.809)" fill="url(#linear-gradient-13)"/>
      <path id="Shape-38" data-name="Shape" d="M-12.013,0A27.9,27.9,0,0,0,0,4.419" transform="translate(-13.7 19.597)" opacity="0.1" fill="url(#linear-gradient-14)"/>
      <path id="Shape-39" data-name="Shape" d="M-12.013,0A27.85,27.85,0,0,0,0,4.419" transform="translate(-13.7 19.201)" fill="url(#linear-gradient-14)"/>
      <g id="Group-4" data-name="Group" transform="translate(-4.679 14.325)" opacity="0.1">
        <path id="Shape-40" data-name="Shape" d="M-9.514,5.144S-1.984,7.517,0,0Z" transform="translate(-0.287 0.053)" fill="url(#linear-gradient-16)"/>
      </g>
      <path id="Shape-41" data-name="Shape" d="M-9.514,5.144S-1.984,7.517,0,0Z" transform="translate(-4.966 13.982)" fill="url(#linear-gradient-16)"/>
      <path id="Oval-5" data-name="Oval" d="M-.792,0c-.438,0-.792.62-.792,1.386s.355,1.386.792,1.386S0,2.151,0,1.386-.355,0-.792,0Z" transform="translate(-0.209 11.606)" fill="url(#linear-gradient-18)"/>
      <path id="Shape-42" data-name="Shape" d="M-1.585,12.677,0,0S-4.757,7.517-1.585,12.662" transform="translate(-59.467 28.805)" opacity="0.1" fill="url(#linear-gradient-19)"/>
      <path id="Shape-43" data-name="Shape" d="M0,0S-4.757,7.517-1.585,12.662Z" transform="translate(-59.071 28.805)" fill="url(#linear-gradient-20)"/>
    </g>
    <path id="Shape-44" data-name="Shape" d="M0,13.155A9.011,9.011,0,0,1-9.088,21.9h-.68a2.3,2.3,0,0,0-1.613.651,2.238,2.238,0,0,0-.655,1.14,2.133,2.133,0,0,0-.069.539v8.62a8.628,8.628,0,0,1-1.369,4.671,12.336,12.336,0,0,0-2.034,6.652h0a4.154,4.154,0,0,1-1.247,2.964,4.168,4.168,0,0,1-2.992,1.19,4.245,4.245,0,0,1-4.08-4.288V41.882l-1.135.131v2.161a4.154,4.154,0,0,1-1.247,2.964,4.168,4.168,0,0,1-2.992,1.19,4.245,4.245,0,0,1-4.08-4.288V42.95c-1.135.473-7.564.473-9.358,0l-.484-.037v1.246a4.154,4.154,0,0,1-1.247,2.964,4.168,4.168,0,0,1-2.992,1.19,4.245,4.245,0,0,1-4.08-4.288V42.231l-.377-.034v1.962a4.2,4.2,0,0,1-.128,1.031A4.166,4.166,0,0,1-56.059,48.3a4.23,4.23,0,0,1-4.055-3.709,4.9,4.9,0,0,1-.037-.582V34.982A13.805,13.805,0,0,1-57.2,26.437a2.556,2.556,0,0,0,.072-3.024c-2.118-3.1-5.25-8.321-5.147-12.027a4.044,4.044,0,0,1,.992-2.74l.125-.131a4.637,4.637,0,0,1,7.951,3.7,12.268,12.268,0,0,0,.312,4.378,13.376,13.376,0,0,0,.852,2.348,3.991,3.991,0,0,0,4.08,2.264,14.126,14.126,0,0,1,1.706-.1h17.5A4.915,4.915,0,0,0-24.1,17.776a4.757,4.757,0,0,0,.265-1.582V2.645a2.642,2.642,0,0,1,.8-1.9A2.651,2.651,0,0,1-21.11,0a2.578,2.578,0,0,1,1.828.85,2.837,2.837,0,0,1,.736,1.9,1.4,1.4,0,0,0,1.4,1.4H-8.9A8.891,8.891,0,0,1-2.561,6.795,8.861,8.861,0,0,1,0,13.155Z" transform="translate(-3.057 1.616)" fill="#f3ad55"/>
    <path id="Shape-45" data-name="Shape" d="M0,1.2A4.166,4.166,0,0,1-4.111,4.314,4.23,4.23,0,0,1-8.166.6C-5.634-.065-2.143-.535,0,1.2Z" transform="translate(-55.011 45.624)" fill="#f38143"/>
    <path id="Shape-46" data-name="Shape" d="M0,1.2A4.166,4.166,0,0,1-4.111,4.314,4.23,4.23,0,0,1-8.166.6C-5.637-.065-2.146-.535,0,1.2Z" transform="translate(-46.311 45.624)" fill="#f38143"/>
    <path id="Shape-47" data-name="Shape" d="M0,1.2A4.166,4.166,0,0,1-4.111,4.314,4.23,4.23,0,0,1-8.166.6C-5.637-.065-2.146-.535,0,1.2Z" transform="translate(-28.157 45.624)" fill="#f38143"/>
    <path id="Shape-48" data-name="Shape" d="M0,1.2A4.166,4.166,0,0,1-4.111,4.314,4.23,4.23,0,0,1-8.166.6C-5.637-.065-2.137-.535,0,1.2Z" transform="translate(-18.702 45.624)" fill="#f38143"/>
    <path id="Shape-49" data-name="Shape" d="M0,9.513A59.632,59.632,0,0,1-9.386,4.307a4.044,4.044,0,0,1,.992-2.74l.125-.131a4.637,4.637,0,0,1,7.951,3.7A12.268,12.268,0,0,0,0,9.513Z" transform="translate(-55.941 8.736)" fill="#f8dea5"/>
    <path id="Shape-50" data-name="Shape" d="M-21.33.025S-13.239,10.2,0,0" transform="translate(-31.054 22.761)" fill="#f8dea5"/>
    <path id="Shape-51" data-name="Shape" d="M-2.185,0a12.829,12.829,0,0,1,0,14.347" transform="translate(-24.708 3.884)" fill="#f8dea5"/>
    <path id="Shape-52" data-name="Shape" d="M0,0S-4.33,5.372-.053,9.654" transform="translate(-15.171 25.782)" fill="#f8dea5"/>
    <path id="Shape-53" data-name="Shape" d="M0,4.824c-.312.311-.212.592-.312,1.034L-14.374,2.18A5.465,5.465,0,0,0-12.368,0C-10.681,1.292-7.346,3.485,0,4.824Z" transform="translate(-14.793 19.825)" opacity="0.1"/>
    <path id="Shape-54" data-name="Shape" d="M0,4.733a2.238,2.238,0,0,0-.655,1.14L-14.362,2.3A4.874,4.874,0,0,0-12.711,0C-11.027,1.308-7.349,3.391,0,4.733Z" transform="translate(-14.447 19.432)" fill="#383f4d"/>
    <path id="Shape-55" data-name="Shape" d="M-11.473,0A26.6,26.6,0,0,0,0,4.216" transform="translate(-15.171 20.189)" opacity="0.1"/>
    <path id="Shape-56" data-name="Shape" d="M-11.473,0A26.6,26.6,0,0,0,0,4.216" transform="translate(-15.171 19.812)" fill="#f3ad55"/>
    <path id="Shape-57" data-name="Shape" d="M-9.077,4.908S-1.9,7.172,0,0Z" transform="translate(-4.665 16.455)" opacity="0.1"/>
    <path id="Shape-58" data-name="Shape" d="M-9.077,4.908S-1.9,7.172,0,0Z" transform="translate(-4.665 16.079)" fill="#f3ad55"/>
    <path id="Oval-6" data-name="Oval" d="M-.755,0c-.417,0-.755.591-.755,1.32s.338,1.32.755,1.32S0,2.05,0,1.32-.338,0-.755,0Z" transform="translate(-2.313 12.569)" fill="#383f4d"/>
    <path id="Shape-59" data-name="Shape" d="M-1.513,12.083,0,0S-4.539,7.162-1.513,12.083" transform="translate(-58.854 28.99)" opacity="0.1"/>
    <path id="Shape-60" data-name="Shape" d="M0,0S-4.539,7.162-1.513,12.083Z" transform="translate(-58.477 28.99)" fill="#f3ad55"/>
  </g>
</svg>
