<svg xmlns="http://www.w3.org/2000/svg" xmlns:xlink="http://www.w3.org/1999/xlink" width="399.567" height="360.192" viewBox="0 0 399.567 360.192">
  <defs>
    <linearGradient id="linear-gradient" x1="0.5" y1="1" x2="0.5" gradientUnits="objectBoundingBox">
      <stop offset="0" stop-color="gray" stop-opacity="0.251"/>
      <stop offset="0.54" stop-color="gray" stop-opacity="0.122"/>
      <stop offset="1" stop-color="gray" stop-opacity="0.102"/>
    </linearGradient>
  </defs>
  <g id="Illustration" transform="translate(0 -0.41)">
    <path id="Shape" d="M.458,311.948a165.6,165.6,0,0,0,11.356,46.567l387.674.088L399.567,0,272.732.374S222.951-5.345,171.917,35.068q-2.386,1.891-4.688,3.889a139.3,139.3,0,0,0-19.483,20.7,144.554,144.554,0,0,0-28.493,70.212c-2.461,20-8.7,45.428-23.885,66.495q-.8,1.079-1.59,2.149a92.868,92.868,0,0,1-44.93,32.258c-18.9,6.428-30.986,16.848-38.4,29.054C.692,275.813-1,294.87.458,311.948Z" transform="translate(0 2)" fill="#f7f7f7" opacity="0.8"/>
    <g id="Group_2" data-name="Group 2" transform="translate(44)">
      <g id="Group_4" data-name="Group 4" transform="translate(0.8 162.255)">
        <path id="Shape-2" data-name="Shape" d="M7.6,114.275S18.112,78.481,5.631,52.135A56.685,56.685,0,0,1,1.073,16.666,95.309,95.309,0,0,1,6.078,0" transform="translate(19.213 25.078)" fill="none" stroke="#535461" stroke-miterlimit="10" stroke-width="0.714" opacity="0.6"/>
        <path id="Shape-3" data-name="Shape" d="M0,7.76c0,4.389,7.919,17.094,7.919,17.094S15.838,12.132,15.838,7.76A7.919,7.919,0,0,0,0,7.76Z" transform="translate(17.53 0.691)" fill="#a3d8d3"/>
        <path id="Shape-4" data-name="Shape" d="M1.382,12.432C3.759,16.116,17.3,22.475,17.3,22.475s-.247-15-2.624-18.679A7.926,7.926,0,1,0,1.382,12.428Z" transform="translate(3.058 20.317)" fill="#a3d8d3"/>
        <path id="Shape-5" data-name="Shape" d="M4.535,15.126c3.906,1.974,18.79.611,18.79.611S15.568,2.917,11.661.943A7.939,7.939,0,1,0,4.535,15.126Z" transform="translate(0.493 59.147)" fill="#a3d8d3"/>
        <path id="Shape-6" data-name="Shape" d="M3.159,14.294c3.514,2.607,18.42,3.786,18.42,3.786s-5.487-13.948-9-16.559A7.935,7.935,0,0,0,3.159,14.294Z" transform="translate(9.34 91.3)" fill="#a3d8d3"/>
        <path id="Shape-7" data-name="Shape" d="M17.751,13.644C14.616,16.7,0,19.866,0,19.866S3.578,5.306,6.714,2.247a7.933,7.933,0,0,1,11.037,11.4Z" transform="translate(19.226 29.998)" fill="#a3d8d3"/>
        <path id="Shape-8" data-name="Shape" d="M18.79,14.966C14.884,16.941,0,15.577,0,15.577S7.757,2.757,11.663.783a7.939,7.939,0,0,1,7.131,14.183Z" transform="translate(26.48 65.418)" fill="#a3d8d3"/>
        <path id="Shape-9" data-name="Shape" d="M18.42,14.294C14.905,16.9,0,18.08,0,18.08S5.487,4.131,9,1.52A7.935,7.935,0,0,1,18.42,14.294Z" transform="translate(30.024 102.906)" fill="#a3d8d3"/>
      </g>
      <g id="Group_5" data-name="Group 5" transform="translate(67.2 215.269)">
        <path id="Shape-10" data-name="Shape" d="M4.1,61.853s5.691-19.38-1.065-33.64A30.694,30.694,0,0,1,.57,9.013,51.6,51.6,0,0,1,3.279,0" transform="translate(10.539 13.585)" fill="none" stroke="#535461" stroke-miterlimit="10" stroke-width="0.714" opacity="0.6"/>
        <path id="Shape-11" data-name="Shape" d="M0,4.3c0,2.376,4.285,9.26,4.285,9.26S8.575,6.673,8.575,4.3A4.288,4.288,0,1,0,0,4.3Z" transform="translate(9.609 0.267)" fill="#f7ac9f"/>
        <path id="Shape-12" data-name="Shape" d="M.688,6.639c1.278,1.991,8.618,5.436,8.618,5.436S9.174,3.955,7.888,1.964a4.292,4.292,0,0,0-7.2,4.675Z" transform="translate(1.837 11.082)" fill="#f7ac9f"/>
        <path id="Shape-13" data-name="Shape" d="M2.362,8.139c2.13,1.068,10.173.329,10.173.329S8.335,1.528,6.222.46A4.3,4.3,0,0,0,2.362,8.152Z" transform="translate(0.474 32.065)" fill="#f7ac9f"/>
        <path id="Shape-14" data-name="Shape" d="M1.748,7.77c1.9,1.41,9.972,2.051,9.972,2.051S8.738,2.27,6.847.847A4.3,4.3,0,0,0,1.735,7.761Z" transform="translate(5.14 49.391)" fill="#f7ac9f"/>
        <path id="Shape-15" data-name="Shape" d="M9.61,7.466C7.906,9.12,0,10.834,0,10.834S1.938,2.949,3.634,1.3A4.292,4.292,0,1,1,9.6,7.466Z" transform="translate(10.534 16.153)" fill="#f7ac9f"/>
        <path id="Shape-16" data-name="Shape" d="M10.173,8.139C8.043,9.207,0,8.468,0,8.468S4.2,1.528,6.313.46a4.3,4.3,0,0,1,3.859,7.692Z" transform="translate(14.457 35.372)" fill="#f7ac9f"/>
        <path id="Shape-17" data-name="Shape" d="M9.972,7.77C8.068,9.18,0,9.821,0,9.821S2.982,2.27,4.873.847A4.3,4.3,0,0,1,9.985,7.762Z" transform="translate(16.378 55.672)" fill="#f7ac9f"/>
      </g>
      <g id="Group" transform="translate(229.223 73.93)" opacity="0.6">
        <path id="Shape-18" data-name="Shape" d="M1.056,5.5A2.893,2.893,0,0,0,.016,8.041c.337,3.141,1.35,10.29,3.881,14.316q.226.359.469.684h13.67s2.786-10.4,2.982-14.987a3.453,3.453,0,0,0-1.24-2.791C17.729,3.554,12.919-.164,10.193.084h-.055S9.09-1.108,1.056,5.5Z" transform="translate(0.001 0.151)" fill="#d6dbe6"/>
        <path id="Shape-19" data-name="Shape" d="M.017,8.045c.337,3.141,1.35,10.29,3.881,14.316.545.235,1.1.466,1.653.684,3.438,1.35,6.705,2.137,6.177,0a4.867,4.867,0,0,0-.528-1.209c-3.135-5.47-1.7-17.4-1.018-21.752h-.055S9.086-1.108,1.056,5.5A2.893,2.893,0,0,0,.017,8.045Z" transform="translate(0.005 0.13)" fill="none"/>
        <path id="Shape-20" data-name="Shape" d="M.017,8.045c.337,3.141,1.35,10.29,3.881,14.316.545.235,1.1.466,1.653.684,3.438,1.35,6.705,2.137,6.177,0a4.867,4.867,0,0,0-.528-1.209c-3.135-5.47-1.7-17.4-1.018-21.752h-.055S9.086-1.108,1.056,5.5A2.893,2.893,0,0,0,.017,8.045Z" transform="translate(0.005 0.13)" opacity="0.05"/>
        <path id="Shape-21" data-name="Shape" d="M0,2.673c0,.6.511,1.155,1.376,1.6a8.451,8.451,0,0,0,1.857.665,15.76,15.76,0,0,0,3.681.426,14.806,14.806,0,0,0,4.4-.631,6.2,6.2,0,0,0,1.653-.775,1.666,1.666,0,0,0,.852-1.278c0-.682-.656-1.3-1.738-1.777Q11.821.79,11.527.687A14.482,14.482,0,0,0,6.918,0,13.015,13.015,0,0,0,1.5,1.015a4.762,4.762,0,0,0-.613.354A1.7,1.7,0,0,0,0,2.673Z" transform="translate(4.285 20.139)" fill="#d6dbe6"/>
        <path id="Shape-22" data-name="Shape" d="M0,2.672c0,.6.511,1.155,1.376,1.6a8.451,8.451,0,0,0,1.857.665,15.76,15.76,0,0,0,3.681.426,14.806,14.806,0,0,0,4.413-.618,6.2,6.2,0,0,0,1.653-.775,1.666,1.666,0,0,0,.852-1.278c0-.682-.656-1.3-1.738-1.777Q11.83.8,11.536.7A14.482,14.482,0,0,0,6.918,0,13.015,13.015,0,0,0,1.5,1.015a4.762,4.762,0,0,0-.613.354A1.7,1.7,0,0,0,0,2.672Z" transform="translate(4.141 20.14)" opacity="0.1"/>
        <path id="Shape-23" data-name="Shape" d="M2.19,3.366a1.785,1.785,0,0,0-.473-2.279A1.065,1.065,0,0,1,1.534,0S-.881,1.6.35,3.43Z" transform="translate(10.338 20.183)" fill="#ffd865"/>
        <path id="Shape-24" data-name="Shape" d="M1.21,1.517A.712.712,0,0,0,.948.49.413.413,0,0,1,.848,0S-.488.72.193,1.542Z" transform="translate(10.952 22.085)" fill="#ffd865"/>
        <path id="Shape-25" data-name="Shape" d="M1.21,1.517A.712.712,0,0,0,.948.49.413.413,0,0,1,.848,0S-.488.72.193,1.542Z" transform="translate(10.952 22.085)" opacity="0.1"/>
        <path id="Shape-26" data-name="Shape" d="M0,3.6a8.451,8.451,0,0,0,1.857.665C3.83,3.8,9.487,2.33,10.718.217Q10.454.1,10.16,0C9.372.942,6.168,4.137,0,3.6Z" transform="translate(5.661 20.807)" fill="#565387"/>
        <path id="Shape-27" data-name="Shape" d="M0,.358c.737,1.333,7.638,2.816,10.449,3.37A6.2,6.2,0,0,0,12.1,2.952,25.063,25.063,0,0,1,.6,0,4.762,4.762,0,0,0,0,.358Z" transform="translate(5.171 21.145)" fill="#565387"/>
        <path id="Shape-28" data-name="Shape" d="M8.319.537c.426.4.294,1.064.247,1.632a4.884,4.884,0,0,0,.771,3.017c.358.551.852,1.115.767,1.765s-.767,1.09-1.125,1.667a3,3,0,0,0-.285,2.038c.106.692.319,1.372.375,2.068a.934.934,0,0,1-.051.474,1.281,1.281,0,0,1-.341.376,2.657,2.657,0,0,0-.562.718,1.779,1.779,0,0,1-.285.453,1.1,1.1,0,0,1-.345.209,4.247,4.247,0,0,1-2.939,0A12.713,12.713,0,0,1,1.87,13.6a2.186,2.186,0,0,1-.626-.5,1.8,1.8,0,0,1-.3-1.013c-.038-.773.106-1.551,0-2.32A15.537,15.537,0,0,0,.272,7.448a7.317,7.317,0,0,1,.175-4.5A3.372,3.372,0,0,1,1.478,1.4C2.551.576,4.115.909,5.359.379,6.291,0,7.463-.3,8.319.537Z" transform="translate(5.632 5.001)" fill="#ffd865" opacity="0.35"/>
      </g>
      <g id="Group-2" data-name="Group" transform="translate(266.283)" opacity="0.6">
        <path id="Shape-29" data-name="Shape" d="M1.822,9.53a5,5,0,0,0-1.793,4.4c.584,5.436,2.339,17.8,6.714,24.76q.388.62.809,1.184H31.2s4.822-18,5.142-25.927a5.991,5.991,0,0,0-2.13-4.829C30.665,6.162,22.346-.286,17.626.141h-.094S15.718-1.9,1.822,9.53Z" transform="translate(0.005 0.41)" fill="#d6dbe6"/>
        <path id="Shape-30" data-name="Shape" d="M.027,13.9c.584,5.436,2.339,17.8,6.714,24.76.941.427,1.9.808,2.858,1.184,5.964,2.338,11.6,3.718,10.688,0a8.424,8.424,0,0,0-.912-2.09C13.953,28.285,16.462,7.644,17.612.145h-.094s-1.8-2.06-15.693,9.367A5,5,0,0,0,.027,13.9Z" transform="translate(0.007 0.441)" fill="none"/>
        <path id="Shape-31" data-name="Shape" d="M.027,13.9c.584,5.436,2.339,17.8,6.714,24.76.941.427,1.9.808,2.858,1.184,5.964,2.338,11.6,3.718,10.688,0a8.424,8.424,0,0,0-.912-2.09C13.953,28.285,16.462,7.644,17.612.145h-.094s-1.8-2.06-15.693,9.367A5,5,0,0,0,.027,13.9Z" transform="translate(0.007 0.441)" opacity="0.05"/>
        <path id="Shape-32" data-name="Shape" d="M0,4.644c0,1.043.886,2,2.381,2.782A14.59,14.59,0,0,0,5.6,8.579a27.206,27.206,0,0,0,6.39.714,25.543,25.543,0,0,0,7.638-1.068,10.707,10.707,0,0,0,2.854-1.342,2.9,2.9,0,0,0,1.474-2.235c0-1.184-1.137-2.261-3.007-3.081q-.452-.2-.963-.376A24.987,24.987,0,0,0,11.991,0,22.42,22.42,0,0,0,2.62,1.763a8.232,8.232,0,0,0-1.061.615A2.893,2.893,0,0,0,0,4.644Z" transform="translate(7.412 35.001)" fill="#d6dbe6"/>
        <path id="Shape-33" data-name="Shape" d="M0,4.644c0,1.043.886,2,2.381,2.782A14.59,14.59,0,0,0,5.6,8.579a27.206,27.206,0,0,0,6.39.714,25.543,25.543,0,0,0,7.638-1.068,10.707,10.707,0,0,0,2.854-1.342,2.9,2.9,0,0,0,1.474-2.235c0-1.184-1.137-2.261-3.007-3.081q-.452-.2-.963-.376A24.987,24.987,0,0,0,11.991,0,22.42,22.42,0,0,0,2.62,1.763a8.232,8.232,0,0,0-1.061.615A2.883,2.883,0,0,0,0,4.644Z" transform="translate(7.161 35.001)" opacity="0.1"/>
        <path id="Shape-34" data-name="Shape" d="M3.791,5.824a3.093,3.093,0,0,0-.822-3.945A1.838,1.838,0,0,1,2.654,0S-1.525,2.761.6,5.935Z" transform="translate(17.874 35.068)" fill="#ffd865"/>
        <path id="Shape-35" data-name="Shape" d="M1.705,2.629A1.393,1.393,0,0,0,1.335.852.852.852,0,0,1,1.194,0S-.689,1.244.274,2.671Z" transform="translate(18.942 38.367)" fill="#ffd865"/>
        <path id="Shape-36" data-name="Shape" d="M1.705,2.629A1.393,1.393,0,0,0,1.335.852.852.852,0,0,1,1.194,0S-.689,1.244.274,2.671Z" transform="translate(18.942 38.367)" opacity="0.1"/>
        <path id="Shape-37" data-name="Shape" d="M0,6.235A14.589,14.589,0,0,0,3.216,7.389C6.624,6.594,16.422,4.038,18.552.376Q18.1.175,17.589,0C16.209,1.6,10.667,7.154,0,6.235Z" transform="translate(9.793 36.191)" fill="#565387"/>
        <path id="Shape-38" data-name="Shape" d="M0,.618c1.278,2.3,13.206,4.874,18.075,5.832a10.722,10.722,0,0,0,2.854-1.338A43.362,43.362,0,0,1,1.061,0,8.238,8.238,0,0,0,0,.618Z" transform="translate(8.941 36.751)" fill="#565387"/>
        <path id="Shape-39" data-name="Shape" d="M14.368.928c.7.692.507,1.838.426,2.82a8.448,8.448,0,0,0,1.333,5.218c.622.953,1.478,1.927,1.325,3.055s-1.325,1.885-1.947,2.88a5.28,5.28,0,0,0-.49,3.53c.183,1.2.554,2.372.647,3.581a1.62,1.62,0,0,1-.089.82,2.224,2.224,0,0,1-.592.65,4.6,4.6,0,0,0-.976,1.239,3.074,3.074,0,0,1-.494.786,1.9,1.9,0,0,1-.6.363,7.38,7.38,0,0,1-5.086.026A22,22,0,0,1,3.2,23.556,3.785,3.785,0,0,1,2.121,22.7a3.114,3.114,0,0,1-.52-1.756c-.068-1.338.183-2.684.026-4.017A27.693,27.693,0,0,0,.473,12.911a12.662,12.662,0,0,1,.3-7.778A5.83,5.83,0,0,1,2.551,2.441C4.409,1.022,7.109,1.586,9.261.685,10.871,0,12.894-.529,14.368.928Z" transform="translate(9.755 8.824)" fill="#ffd865" opacity="0.35"/>
      </g>
      <path id="Shape-40" data-name="Shape" d="M3.064,16A8.406,8.406,0,0,0,.048,23.387C1.028,32.519,3.971,53.3,11.324,64.98q.656,1.043,1.359,1.983H52.406s8.094-30.23,8.639-43.55a10.035,10.035,0,0,0-3.6-8.119C51.477,10.332,37.513-.48,29.582.238H29.42S26.4-3.193,3.064,16Z" transform="translate(144.881 28.868)" fill="#ffc107"/>
      <path id="Shape-41" data-name="Shape" d="M.052,23.379c.98,9.132,3.923,29.914,11.276,41.593,1.58.684,3.195,1.355,4.8,1.983,9.985,3.927,19.489,6.243,17.951,0a14.147,14.147,0,0,0-1.529-3.508c-9.112-15.9-4.9-50.567-2.982-63.2H29.4s-3.02-3.461-26.36,15.73A8.406,8.406,0,0,0,.052,23.379Z" transform="translate(144.877 28.876)" fill="none"/>
      <path id="Shape-42" data-name="Shape" d="M.052,23.379c.98,9.132,3.923,29.914,11.276,41.593,1.58.684,3.195,1.355,4.8,1.983,9.985,3.927,19.489,6.243,17.951,0a14.147,14.147,0,0,0-1.529-3.508c-9.112-15.9-4.9-50.567-2.982-63.2H29.4s-3.02-3.461-26.36,15.73A8.406,8.406,0,0,0,.052,23.379Z" transform="translate(144.877 28.876)" opacity="0.05"/>
      <path id="Shape-43" data-name="Shape" d="M0,7.807c0,1.752,1.487,3.372,4,4.671a24.507,24.507,0,0,0,5.4,1.936,45.7,45.7,0,0,0,10.7,1.2,42.958,42.958,0,0,0,12.826-1.795,17.985,17.985,0,0,0,4.8-2.256C39.3,10.444,40.2,9.166,40.2,7.8c0-1.983-1.908-3.8-5.052-5.175Q34.381,2.295,33.525,2A41.919,41.919,0,0,0,20.1,0C13.708,0,8.03,1.154,4.337,2.957a13.829,13.829,0,0,0-1.785,1.03C.929,5.12,0,6.423,0,7.807Z" transform="translate(157.329 86.959)" fill="#d6dbe6"/>
      <path id="Shape-44" data-name="Shape" d="M0,7.807c0,1.752,1.487,3.372,4,4.671a24.507,24.507,0,0,0,5.4,1.936,45.7,45.7,0,0,0,10.7,1.2,42.958,42.958,0,0,0,12.826-1.795,17.985,17.985,0,0,0,4.8-2.256C39.3,10.444,40.2,9.166,40.2,7.8c0-1.983-1.908-3.8-5.052-5.175Q34.381,2.295,33.525,2A41.919,41.919,0,0,0,20.1,0C13.708,0,8.03,1.154,4.337,2.957a13.829,13.829,0,0,0-1.785,1.03C.929,5.12,0,6.423,0,7.807Z" transform="translate(156.903 86.959)" fill="#ffc107"/>
      <path id="Shape-45" data-name="Shape" d="M6.371,9.812a5.222,5.222,0,0,0-1.38-6.649S3.619,1.5,4.458,0c0,0-7.02,4.649-3.442,10Z" transform="translate(174.903 87.079)" fill="#ffd865"/>
      <path id="Shape-46" data-name="Shape" d="M2.868,4.4a2.339,2.339,0,0,0-.622-2.982A1.391,1.391,0,0,1,2.008,0S-1.153,2.088.457,4.486Z" transform="translate(176.693 92.647)" fill="#ffd865"/>
      <path id="Shape-47" data-name="Shape" d="M2.868,4.4a2.339,2.339,0,0,0-.622-2.982A1.391,1.391,0,0,1,2.008,0S-1.153,2.088.457,4.486Z" transform="translate(176.693 92.647)" opacity="0.1"/>
      <path id="Shape-48" data-name="Shape" d="M0,10.478a24.507,24.507,0,0,0,5.4,1.936C11.131,11.081,27.553,6.786,31.144.632Q30.381.3,29.525,0C27.22,2.7,17.891,12.021,0,10.478Z" transform="translate(161.333 88.959)" fill="#e0b022"/>
      <path id="Shape-49" data-name="Shape" d="M0,1.03c2.13,3.885,22.19,8.209,30.36,9.829a17.985,17.985,0,0,0,4.8-2.256A72.661,72.661,0,0,1,1.785,0,13.829,13.829,0,0,0,0,1.03Z" transform="translate(159.894 89.921)" fill="#e0b022"/>
      <path id="Shape-50" data-name="Shape" d="M24.128,1.561c1.18,1.158.852,3.09.724,4.739a14.188,14.188,0,0,0,2.241,8.765c1.044,1.6,2.488,3.239,2.224,5.128s-2.228,3.167-3.272,4.842a8.916,8.916,0,0,0-.826,5.931c.3,2.017.929,3.983,1.091,6.013a2.717,2.717,0,0,1-.153,1.38,3.735,3.735,0,0,1-.976,1.094,7.718,7.718,0,0,0-1.64,2.081,5.165,5.165,0,0,1-.831,1.32,3.189,3.189,0,0,1-1.005.611,12.394,12.394,0,0,1-8.545.038,36.912,36.912,0,0,1-7.77-3.936A6.355,6.355,0,0,1,3.57,38.124a5.225,5.225,0,0,1-.878-2.949c-.115-2.248.311-4.513.043-6.748-.281-2.329-1.3-4.5-1.942-6.752a21.268,21.268,0,0,1,.5-13.06A9.837,9.837,0,0,1,4.277,4.1C7.4,1.715,11.945,2.676,15.548,1.146,18.236.005,21.632-.892,24.128,1.561Z" transform="translate(161.286 42.994)" fill="#fff" opacity="0.25"/>
      <path id="Shape-51" data-name="Shape" d="M1.316,234.118c-4.217-2.393,3.05-2.974,3.038-2.965,2.978-.675,5.432-4.273,5.432-4.273l.243.039L7.088,187.769s-3.119-5.692,0-13.94c.622-1.649,1.21-3.359,1.751-5.068l-.473-.2.094-.53L8.366,168s9.065-49.849,9.171-66.088a10.529,10.529,0,0,0-.524-4.034c-1.431-2.744-4-6.68-3.889-11.6-.094-4.786,2.3-10.564,10.905-17.094-.686-5.487-2.381-17-5.316-24.786a38.876,38.876,0,0,1,0-12.82l1.7-21.62S20.145,0,26.381,0,26.1,11.111,26.1,11.111l.567,28.162s.187,1.457.507,3.748a11.042,11.042,0,0,1,5.683-3.474,6.853,6.853,0,0,1,.426-3.029c.128.081.26.153.392.226.051-.171.106-.342.175-.508a8.5,8.5,0,0,0,4.426,1.283c1.426.008,2.832-.347,4.26-.454a12.421,12.421,0,0,1,6.939,1.552c.294-.03.592-.064.89-.112,5.581-.85,9.462,6.278,15.051,9.2,3.919,2.048,5.486,6.829,6.116,11.222s.7,9.059,2.983,12.859c1.559,2.6,5.048,4.093,5.7,7.055,1.278,5.769-.14,4.333-1.559,12.025-.469,2.539-1.074,3.551-1.674,6.064-.643,2.71.072,5.539.167,8.325.247,7.294-4.431,14.337-10.927,17.473a17.219,17.219,0,0,1-5.227,1.774,14.939,14.939,0,0,0,3.856,8.747c-.23.068-.439.129-.656.184l.089.1c-3.749,1.23-7.893-.193-11.194-2.355a25.939,25.939,0,0,1-2.757-2.085,24.908,24.908,0,0,1,1.244,3.727l.026.025.681-.166s-.2.111-.55.291c1.9,1.752,20.358,18.863,27.459,22.127,1.564.039,6.675,9.184-6.632,12.432-10.48,2.56-12.758-1.137-18.147,5.405a13.055,13.055,0,0,1-5.632,3.825c1.538,4.91,3.957,11.068,6.769,12.393,4.844,2.278,12.78,14.217,13.632,18.491l7.1,15.226h.131l1.444,1.552a2.606,2.606,0,0,1-.933,4.192c-4.115,1.645-10.811,3.931-13.84,2.79-4.532-1.709,2.556-3.418,2.556-3.418,2.841-1.141,4.26-4.837,4.26-4.837l-22.824-26.03S38.129,193.64,36.3,186.307c-.115-.457-1.462-4.06-3.011-8.15-1.444-.106-2.825-.243-4.077-.384a25.383,25.383,0,0,1-6.867-2.09c-1.474,5.008-2.748,10.449-2.207,12.9,1.133,5.12,2.556,11.65,0,20.2l-4.4,18.919h-.4l.451.068,1.172,1.739a2.622,2.622,0,0,1-1.593,4.026,48.557,48.557,0,0,1-9.854,1.365A8.938,8.938,0,0,1,1.316,234.118Z" transform="translate(154.185 94.211)" fill="url(#linear-gradient)"/>
      <path id="Shape-52" data-name="Shape" d="M30.219,4.1c2.445,4.149,2,11.735-1.393,25.606,0,0-3.881,10.568,3.881,19.465S42.13,65.838,42.13,65.838,66.5,80.983,69.572,87.8C65,77.654,80.017,92.183,62.641,96.423c-10.253,2.5-12.473-1.111-17.738,5.282s-17.184,5.555-24.669,4.726S0,96.7,0,96.7,14.134,36.92,11.076,31.078C8.192,25.553-2.181,15.053,18.138,1.455A8.541,8.541,0,0,1,30.219,4.1Z" transform="translate(163.003 164.631)" fill="#f0898b"/>
      <path id="Shape-53" data-name="Shape" d="M30.219,4.1c2.445,4.149,2,11.735-1.393,25.606,0,0-3.881,10.568,3.881,19.465S42.13,65.838,42.13,65.838,66.654,80.914,69.572,87.8c-4.3-10.149,10.445,4.38-6.931,8.619-10.253,2.5-12.473-1.111-17.738,5.282s-17.184,5.555-24.669,4.726S0,96.7,0,96.7,14.134,36.92,11.076,31.078C8.192,25.553-2.181,15.053,18.138,1.455A8.541,8.541,0,0,1,30.219,4.1Z" transform="translate(163.003 164.631)" fill="#ffdf9c"/>
      <path id="Shape-54" data-name="Shape" d="M30.219,4.1c2.445,4.149,2,11.735-1.393,25.606,0,0-3.881,10.568,3.881,19.465S42.13,65.838,42.13,65.838,66.654,80.914,69.572,87.8c-4.3-10.149,10.445,4.38-6.931,8.619-10.253,2.5-12.473-1.111-17.738,5.282s-17.184,5.555-24.669,4.726S0,96.7,0,96.7,14.134,36.92,11.076,31.078C8.192,25.553-2.181,15.053,18.138,1.455A8.541,8.541,0,0,1,30.219,4.1Z" transform="translate(163.003 164.631)" fill="#61dbb2"/>
      <path id="Shape-55" data-name="Shape" d="M18.313,5s3.6,16.128,8.315,18.35,12.473,13.9,13.3,18.072L47,56.588h-6.39L18.3,31.145S9.551,27.726,7.761,20.576C7.485,19.465,0,0,0,0Z" transform="translate(182.39 258.844)" fill="#fec2be"/>
      <path id="Shape-56" data-name="Shape" d="M19.647,9.731s-6.654,17.794-5.538,22.8,2.5,11.4,0,19.743l-4.3,18.487-5.538-.278L1.356,31.7s-3.05-5.555,0-13.624A153.5,153.5,0,0,0,6.6,0Z" transform="translate(160.267 249.114)" fill="#fec2be"/>
      <path id="Shape-57" data-name="Shape" d="M6.03,70.626S4.369,53.665.492,43.375a37.888,37.888,0,0,1,0-12.513L2.154,9.731S1.877,0,7.973,0,7.7,10.846,7.7,10.846l.554,27.529s3.6,28.085,6.1,31.145Z" transform="translate(172.5 97.292)" fill="#fec2be"/>
      <path id="Shape-58" data-name="Shape" d="M6.03,70.626S4.369,53.665.492,43.375a37.888,37.888,0,0,1,0-12.513L2.154,9.731S1.877,0,7.973,0,7.7,10.846,7.7,10.846l.554,27.529s3.6,28.085,6.1,31.145Z" transform="translate(172.5 97.292)" opacity="0.05"/>
      <path id="Shape-59" data-name="Shape" d="M2.219,0S3.327,13.346,0,17.794c0,0,7.761-4.171,14.411-.556,0,0-4.158-11.4-2.773-16.406Z" transform="translate(177.695 147.915)" fill="#fec2be"/>
      <path id="Shape-60" data-name="Shape" d="M30.351,4.1c2.445,4.149,3.668,11.735.273,25.606,0,0-5.538,10.568,2.219,19.465s9.423,16.666,9.423,16.666S62.777,85.025,69.708,87.8c0,0,3.327,6.115-6.931,8.619S50.3,95.312,45.039,101.7s-17.184,5.555-24.669,4.726S0,100.175,0,100.175s11.5-63.246,8.456-69.1C5.572,25.553-2.028,15.053,18.288,1.455A8.524,8.524,0,0,1,30.351,4.1Z" transform="translate(162.871 161.293)" fill="#3ad29f"/>
      <path id="Oval" d="M9.423,0A9.453,9.453,0,1,1,0,9.453,9.438,9.438,0,0,1,9.423,0Z" transform="translate(175.48 162.637)" fill="#fec2be"/>
      <path id="Shape-61" data-name="Shape" d="M10.646,3.776l1.938,29.2L6.194,64.116s5.819,20.576,0,18.628S.1,63.834.1,63.834L3.979,31.3S-.732,6.831.1,1.814,10.646,3.776,10.646,3.776Z" transform="translate(177.584 172.207)" opacity="0.1"/>
      <path id="Shape-62" data-name="Shape" d="M10.646,3.776l1.938,29.2L6.194,64.116s5.819,20.576,0,18.628S.1,63.834.1,63.834L3.979,31.3S-.732,6.831.1,1.814,10.646,3.776,10.646,3.776Z" transform="translate(177.584 171.651)" fill="#fec2be"/>
      <path id="Shape-63" data-name="Shape" d="M9.546,8.5C5.623,8.5,2.053,7.372.175,4.222.149,1.765,0,0,0,0L9.423.855c-.6,2.137-.268,3.983.426,7.09C9.649,7.949,9.721,8.5,9.546,8.5Z" transform="translate(179.932 148.441)" opacity="0.03"/>
      <path id="Oval-2" data-name="Oval" d="M10.812,0A10.846,10.846,0,1,1,0,10.846,10.829,10.829,0,0,1,10.812,0Z" transform="translate(178.526 135.663)" fill="#fec2be"/>
      <path id="Shape-64" data-name="Shape" d="M6.236,0S5.384,4.158,0,4.576" transform="translate(171.323 188.359)" opacity="0.03"/>
      <path id="Shape-65" data-name="Shape" d="M21.108,101.707c5.265-6.41,7.485-2.782,17.738-5.282s6.931-8.619,6.931-8.619C38.846,85.023,18.334,65.84,18.334,65.84s-1.661-7.786-9.423-16.666S6.692,29.709,6.692,29.709C10.1,15.841,8.869,8.252,6.42,4.1A8.33,8.33,0,0,0,0,.047,8.392,8.392,0,0,1,8.094,4.1c2.445,4.149,3.668,11.735.273,25.606,0,0-5.538,10.568,2.219,19.465S20.009,65.84,20.009,65.84,40.52,85.028,47.45,87.805c0,0,3.327,6.115-6.931,8.619s-12.473-1.111-17.738,5.282c-3.642,4.423-10.462,5.389-16.8,5.286C11.808,106.9,17.785,105.745,21.108,101.707Z" transform="translate(185.137 161.308)" opacity="0.03"/>
      <path id="Shape-66" data-name="Shape" d="M.211,26.076a8.733,8.733,0,0,1,1.657-1.927c1.827-2.081,1.512-5.2,1.619-7.974A21.784,21.784,0,0,1,5.229,8.483,6.51,6.51,0,0,1,3.469,7.2,6.939,6.939,0,0,1,2.051,0,8.308,8.308,0,0,0,6.375,1.226c1.4,0,2.773-.338,4.17-.427a12.147,12.147,0,0,1,6.786,1.517c.29-.03.579-.064.852-.111,5.457-.829,9.248,6.141,14.709,9,3.834,2,5.38,6.679,5.964,10.97s.673,8.854,2.9,12.568c1.525,2.538,4.937,4,5.576,6.9,1.248,5.641-.136,4.248-1.521,11.756-.46,2.483-1.052,3.474-1.636,5.927-.63,2.65.068,5.414.162,8.119.3,8.94-6.961,17.5-15.808,18.623a14.6,14.6,0,0,0,3.834,8.752c-3.663,1.205-7.715-.188-10.944-2.3A26.3,26.3,0,0,1,10.634,77.776c-2.177-7.752-.677-15.991-.332-24.038s-.92-17-7.02-22.222C1.561,30.046-.705,28.123.211,26.076Z" transform="translate(185.204 133.014)" opacity="0.1"/>
      <path id="Shape-67" data-name="Shape" d="M.211,26.076a8.733,8.733,0,0,1,1.657-1.927c1.827-2.081,1.512-5.2,1.619-7.974A21.784,21.784,0,0,1,5.229,8.483,6.51,6.51,0,0,1,3.47,7.2,6.939,6.939,0,0,1,2.051,0,8.309,8.309,0,0,0,6.379,1.256c1.4,0,2.773-.338,4.17-.427a12.147,12.147,0,0,1,6.773,1.487c.29-.03.579-.064.852-.111,5.457-.829,9.248,6.141,14.709,9,3.834,2,5.38,6.679,5.964,10.97s.673,8.854,2.9,12.568c1.525,2.538,4.937,4,5.576,6.9,1.248,5.641-.136,4.248-1.521,11.756-.46,2.483-1.052,3.474-1.636,5.927-.63,2.65.068,5.414.162,8.119.3,8.94-6.961,17.5-15.808,18.623A14.6,14.6,0,0,0,32.3,94.805c-3.663,1.205-7.715-.188-10.944-2.3a26.3,26.3,0,0,1-10.8-14.747C8.385,70,9.885,61.763,10.23,53.717s-.92-17-7.02-22.222C1.561,30.046-.705,28.123.211,26.076Z" transform="translate(185.757 132.736)" fill="#252a62"/>
      <path id="Shape-68" data-name="Shape" d="M8.136.278S6.751,3.893,3.978,5c0,0-6.931,1.667-2.5,3.338,2.982,1.115,9.5-1.12,13.529-2.726a2.568,2.568,0,0,0,.912-4.1L14.513,0Z" transform="translate(214.88 315.155)" fill="#4c4981"/>
      <path id="Shape-69" data-name="Shape" d="M9.576,0s-2.4,3.517-5.308,4.184c0,0-7.105.568-2.982,2.906,2.743,1.556,9.525.385,13.751-.577a2.566,2.566,0,0,0,1.555-3.936L15.447.868Z" transform="translate(154.679 319.043)" fill="#4c4981"/>
      <path id="Shape-70" data-name="Shape" d="M13.58,0A28.867,28.867,0,0,1,0,3.327" transform="translate(192.251 227.007)" opacity="0.03"/>
      <path id="Shape-71" data-name="Shape" d="M2.289,10.74A6.807,6.807,0,0,1,.074,7.39,2.988,2.988,0,0,1,1.621,3.971C3.039,3.424,4.56,4.4,5.71,5.411S8.181,7.548,9.684,7.334a6.084,6.084,0,0,1-1.87-5.684A2.38,2.38,0,0,1,8.334.5c.788-.855,2.219-.483,3.161.184,2.982,2.137,3.834,6.209,3.855,9.893A18.879,18.879,0,0,0,15.405,6.5,4.2,4.2,0,0,1,16.93,2.89a4.584,4.584,0,0,1,2.347-.543,4.789,4.789,0,0,1,3.774,1.077C24.2,4.655,23.9,6.719,22.9,8.074A14.749,14.749,0,0,1,19,11.215a8.676,8.676,0,0,0-2.79,2.671,2.65,2.65,0,0,0-.209.479H7.52A23.581,23.581,0,0,1,2.289,10.74Z" transform="translate(238.328 318.64)" fill="#f7ac9f"/>
      <path id="Shape-72" data-name="Shape" d="M0,7.76c0,4.389,7.919,17.094,7.919,17.094S15.838,12.132,15.838,7.76A7.919,7.919,0,0,0,0,7.76Z" transform="translate(275.621 169.086)" fill="#ffc107"/>
      <path id="Shape-73" data-name="Shape" d="M1.167,12.1C3.544,15.782,17.081,22.14,17.081,22.14s-.247-15-2.624-18.679A7.926,7.926,0,0,0,1.167,12.094Z" transform="translate(261.368 189.047)" fill="#ffc107"/>
      <path id="Shape-74" data-name="Shape" d="M4.219,14.966c3.906,1.974,18.79.611,18.79.611S15.252,2.757,11.345.783A7.939,7.939,0,0,0,4.214,14.966Z" transform="translate(258.887 227.703)" fill="#ffc107"/>
      <path id="Shape-75" data-name="Shape" d="M3.261,14.369c3.514,2.607,18.42,3.786,18.42,3.786s-5.487-13.948-9-16.559A7.935,7.935,0,1,0,3.261,14.369Z" transform="translate(267.329 259.612)" fill="#ffc107"/>
      <path id="Shape-76" data-name="Shape" d="M17.751,13.644C14.616,16.7,0,19.866,0,19.866S3.578,5.306,6.714,2.247a7.933,7.933,0,0,1,11.037,11.4Z" transform="translate(277.342 198.394)" fill="#ffc107"/>
      <path id="Shape-77" data-name="Shape" d="M18.79,15.126C14.884,17.1,0,15.737,0,15.737S7.757,2.917,11.663.943A7.939,7.939,0,1,1,18.79,15.126Z" transform="translate(284.575 233.641)" fill="#ffc107"/>
      <path id="Shape-78" data-name="Shape" d="M18.42,14.294C14.905,16.9,0,18.08,0,18.08S5.487,4.131,9,1.52A7.935,7.935,0,0,1,18.42,14.294Z" transform="translate(288.119 271.302)" fill="#ffc107"/>
      <g id="Group_6" data-name="Group 6" transform="translate(258.4 168.681)">
        <path id="Shape-79" data-name="Shape" d="M7.6,114.275S18.112,78.481,5.631,52.135A56.685,56.685,0,0,1,1.073,16.666,95.309,95.309,0,0,1,6.078,0" transform="translate(18.908 24.785)" fill="none" stroke="#535461" stroke-miterlimit="10" stroke-width="0.714" opacity="0.6"/>
        <path id="Shape-80" data-name="Shape" d="M0,7.76c0,4.389,7.919,17.094,7.919,17.094S15.838,12.132,15.838,7.76A7.919,7.919,0,0,0,0,7.76Z" transform="translate(17.221 0.406)" fill="#a3d8d3"/>
        <path id="Shape-81" data-name="Shape" d="M1.167,12.1C3.544,15.782,17.081,22.14,17.081,22.14s-.247-15-2.624-18.679A7.926,7.926,0,0,0,1.167,12.094Z" transform="translate(2.968 20.366)" fill="#a3d8d3"/>
        <path id="Shape-82" data-name="Shape" d="M4.219,14.966c3.906,1.974,18.79.611,18.79.611S15.252,2.757,11.345.783A7.939,7.939,0,0,0,4.214,14.966Z" transform="translate(0.487 59.022)" fill="#a3d8d3"/>
        <path id="Shape-83" data-name="Shape" d="M3.261,14.369c3.514,2.607,18.42,3.786,18.42,3.786s-5.487-13.948-9-16.559A7.935,7.935,0,1,0,3.261,14.369Z" transform="translate(8.929 90.931)" fill="#a3d8d3"/>
        <path id="Shape-84" data-name="Shape" d="M17.751,13.644C14.616,16.7,0,19.866,0,19.866S3.578,5.306,6.714,2.247a7.933,7.933,0,0,1,11.037,11.4Z" transform="translate(18.942 29.713)" fill="#a3d8d3"/>
        <path id="Shape-85" data-name="Shape" d="M18.79,15.126C14.884,17.1,0,15.737,0,15.737S7.757,2.917,11.663.943A7.939,7.939,0,1,1,18.79,15.126Z" transform="translate(26.175 64.96)" fill="#a3d8d3"/>
        <path id="Shape-86" data-name="Shape" d="M18.42,14.294C14.905,16.9,0,18.08,0,18.08S5.487,4.131,9,1.52A7.935,7.935,0,0,1,18.42,14.294Z" transform="translate(29.719 102.621)" fill="#a3d8d3"/>
      </g>
    </g>
  </g>
</svg>
